<svg width="269" height="259" viewBox="0 0 269 259" fill="none" xmlns="http://www.w3.org/2000/svg">
<circle opacity="0.3" cx="143.515" cy="142.286" r="108.069" fill="#B3BEE3"/>
<path opacity="0.1" d="M172.91 182.487C172.91 224.744 138.654 259 96.3972 259C54.1405 259 19.8846 224.744 19.8846 182.487C19.8846 140.231 54.1405 105.975 96.3972 105.975C138.654 105.975 172.91 140.231 172.91 182.487Z" fill="#5162B3"/>
<path opacity="0.2" d="M268.01 82.1998C268.01 108.7 246.528 130.182 220.028 130.182C193.528 130.182 172.045 108.7 172.045 82.1998C172.045 55.6999 193.528 34.2174 220.028 34.2174C246.528 34.2174 268.01 55.6999 268.01 82.1998Z" fill="#FAFAFD"/>
<path opacity="0.6" d="M16.4264 82.6321C16.4264 85.9744 13.7169 88.6839 10.3746 88.6839C7.03225 88.6839 4.32275 85.9744 4.32275 82.6321C4.32275 79.2898 7.03225 76.5803 10.3746 76.5803C13.7169 76.5803 16.4264 79.2898 16.4264 82.6321Z" fill="#FAFAFD"/>
<path opacity="0.4" d="M134.87 13.4682C134.87 20.6304 129.063 26.4365 121.901 26.4365C114.739 26.4365 108.933 20.6304 108.933 13.4682C108.933 6.30607 114.739 0.5 121.901 0.5C129.063 0.5 134.87 6.30607 134.87 13.4682Z" fill="white"/>
<path opacity="0.2" d="M232.564 138.001C232.564 148.692 230.028 157.492 225.63 165.031C224.179 167.514 222.531 169.877 220.703 172.099C204.535 191.848 174.477 202.658 147.31 220.167C67.1186 271.851 58.4323 189.033 62.0541 138.001C63.515 117.409 71.5439 98.5468 84.2995 84.1046C86.9784 81.0671 89.8721 78.2257 92.9584 75.6022C107.44 63.2848 126.148 55.8311 147.31 55.8311C183.617 55.8311 214.622 77.7027 226.915 108.524C230.652 117.903 232.569 127.906 232.564 138.001Z" fill="#41589D"/>
<path d="M65.7056 77.4447C65.7056 77.6577 65.6995 77.8677 65.6809 78.0746C65.5874 79.3568 65.2091 80.602 64.5735 81.7195C63.9379 82.837 63.061 83.7987 62.0067 84.5345C60.9525 85.2703 59.7474 85.7617 58.4792 85.9729C57.211 86.184 55.9117 86.1097 54.6759 85.7552C53.44 85.4008 52.2989 84.7751 51.3354 83.9239C50.372 83.0726 49.6105 82.0172 49.1065 80.8345C48.6026 79.6517 48.3688 78.3715 48.4221 77.087C48.4755 75.8024 48.8147 74.546 49.4151 73.4091C49.601 73.0529 49.8136 72.7112 50.0511 72.3871C51.085 70.9532 52.5338 69.8708 54.2021 69.2859C55.8704 68.7011 57.678 68.6419 59.3809 69.1165C61.0839 69.591 62.6003 70.5764 63.7258 71.9397C64.8512 73.303 65.5314 74.9787 65.6748 76.7407C65.6964 76.9723 65.7056 77.2069 65.7056 77.4447Z" fill="#4154AF"/>
<path d="M222.311 96.3522H159.594V96.0235C159.594 95.7676 159.492 95.5221 159.311 95.3411C159.13 95.1601 158.885 95.0584 158.629 95.0584H132.119C131.864 95.0584 131.618 95.1601 131.438 95.3411C131.257 95.5221 131.155 95.7676 131.155 96.0235V96.3522H68.1796C67.0545 96.3522 65.9754 96.7996 65.1798 97.5959C64.3842 98.3922 63.9373 99.4722 63.9373 100.598V186.553C63.9373 187.679 64.3842 188.759 65.1798 189.556C65.9754 190.352 67.0545 190.799 68.1796 190.799H222.311C223.436 190.799 224.515 190.352 225.31 189.556C226.106 188.759 226.553 187.679 226.553 186.553V100.598C226.553 99.4722 226.106 98.3922 225.311 97.5959C224.515 96.7996 223.436 96.3522 222.311 96.3522Z" fill="#3F3D56"/>
<path d="M71.5545 105.386C71.4493 105.386 71.3484 105.428 71.274 105.502C71.1995 105.577 71.1577 105.678 71.1576 105.783V187.313C71.1577 187.419 71.1996 187.52 71.274 187.594C71.3484 187.669 71.4493 187.71 71.5545 187.711H218.938C219.043 187.71 219.144 187.669 219.219 187.594C219.293 187.52 219.335 187.419 219.335 187.313V105.783C219.335 105.678 219.293 105.577 219.219 105.502C219.144 105.428 219.043 105.386 218.938 105.386H71.5545Z" fill="#4154AF"/>
<path d="M145.115 101.527C145.971 101.527 146.666 100.832 146.666 99.9746C146.666 99.1172 145.971 98.4221 145.115 98.4221C144.258 98.4221 143.563 99.1172 143.563 99.9746C143.563 100.832 144.258 101.527 145.115 101.527Z" fill="#4154AF"/>
<path d="M229.381 185.001H214.621V183.475C214.621 183.391 214.526 183.323 214.41 183.323H209.349C209.233 183.323 209.138 183.391 209.138 183.475V185.001H205.975V183.475C205.975 183.391 205.881 183.323 205.765 183.323H200.704C200.587 183.323 200.493 183.391 200.493 183.475V185.001H197.33V183.475C197.33 183.391 197.236 183.323 197.119 183.323H192.059C191.942 183.323 191.848 183.391 191.848 183.475V185.001H188.685V183.475C188.685 183.391 188.591 183.323 188.474 183.323H183.414C183.297 183.323 183.203 183.391 183.203 183.475V185.001H180.04V183.475C180.04 183.391 179.945 183.323 179.829 183.323H174.768C174.652 183.323 174.557 183.391 174.557 183.475V185.001H171.395V183.475C171.395 183.391 171.3 183.323 171.184 183.323H166.123C166.007 183.323 165.912 183.391 165.912 183.475V185.001H162.749V183.475C162.749 183.391 162.655 183.323 162.539 183.323H122.897C122.781 183.323 122.686 183.391 122.686 183.475V185.001H119.523V183.475C119.523 183.391 119.429 183.323 119.313 183.323H114.252C114.136 183.323 114.041 183.391 114.041 183.475V185.001H110.878V183.475C110.878 183.391 110.784 183.323 110.667 183.323H105.607C105.49 183.323 105.396 183.391 105.396 183.475V185.001H102.233V183.475C102.233 183.391 102.139 183.323 102.022 183.323H96.9616C96.8451 183.323 96.7507 183.391 96.7507 183.475V185.001H93.5878V183.475C93.5878 183.391 93.4935 183.323 93.377 183.323H88.3164C88.1999 183.323 88.1055 183.391 88.1055 183.475V185.001H84.9427V183.475C84.9427 183.391 84.8483 183.323 84.7318 183.323H79.6712C79.5547 183.323 79.4603 183.391 79.4603 183.475V185.001H76.2975V183.475C76.2975 183.391 76.2031 183.323 76.0866 183.323H71.026C70.9095 183.323 70.8151 183.391 70.8151 183.475V185.001H61.1157C58.3208 185.001 56.0551 186.631 56.0551 188.642V190.288C56.0551 192.299 58.3208 193.929 61.1157 193.929H229.381C232.176 193.929 234.441 192.299 234.441 190.288V188.642C234.441 186.631 232.176 185.001 229.381 185.001Z" fill="#3F3D56"/>
<path d="M117.064 140.594C116.455 140.594 115.99 141.059 115.99 141.668C115.99 142.277 116.455 142.742 117.064 142.742H122.433C122.72 142.742 123.006 142.635 123.185 142.42L126.514 139.091C127.015 139.341 127.588 139.484 128.161 139.484C130.13 139.484 131.741 137.873 131.741 135.905C131.741 133.936 130.13 132.325 128.161 132.325C126.192 132.325 124.581 133.936 124.581 135.905C124.581 136.513 124.724 137.05 124.975 137.551L122.004 140.594H117.064ZM128.161 134.509C128.948 134.509 129.593 135.153 129.593 135.94C129.593 136.728 128.948 137.372 128.161 137.372C127.373 137.372 126.729 136.728 126.729 135.94C126.729 135.153 127.373 134.509 128.161 134.509ZM131.383 143.458C129.772 143.458 128.411 144.496 127.982 145.964H117.064C116.455 145.964 115.99 146.429 115.99 147.038C115.99 147.646 116.455 148.112 117.064 148.112H127.982C128.447 149.579 129.807 150.617 131.383 150.617C133.351 150.617 134.962 149.007 134.962 147.038C134.962 145.069 133.351 143.458 131.383 143.458ZM131.383 148.47C130.595 148.47 129.951 147.825 129.951 147.038C129.951 146.25 130.595 145.606 131.383 145.606C132.17 145.606 132.814 146.25 132.814 147.038C132.814 147.825 132.17 148.47 131.383 148.47ZM118.853 127.349C116.885 127.349 115.274 128.96 115.274 130.929C115.274 132.898 116.885 134.509 118.853 134.509C120.822 134.509 122.433 132.898 122.433 130.929C122.433 128.96 120.822 127.349 118.853 127.349ZM118.853 132.361C118.066 132.361 117.421 131.716 117.421 130.929C117.421 130.141 118.066 129.497 118.853 129.497C119.641 129.497 120.285 130.141 120.285 130.929C120.285 131.716 119.641 132.361 118.853 132.361ZM128.161 161.715C130.13 161.715 131.741 160.104 131.741 158.135C131.741 156.166 130.13 154.555 128.161 154.555C127.552 154.555 127.015 154.698 126.514 154.949L123.185 151.62C123.006 151.441 122.72 151.333 122.433 151.333H117.064C116.455 151.333 115.99 151.799 115.99 152.407C115.99 153.016 116.455 153.481 117.064 153.481H122.004L125.011 156.488C124.76 156.989 124.617 157.562 124.617 158.135C124.581 160.104 126.192 161.715 128.161 161.715ZM128.161 156.703C128.948 156.703 129.593 157.347 129.593 158.135C129.593 158.923 128.948 159.567 128.161 159.567C127.373 159.567 126.729 158.923 126.729 158.135C126.729 157.347 127.373 156.703 128.161 156.703ZM118.853 166.726C120.822 166.726 122.433 165.116 122.433 163.147C122.433 161.178 120.822 159.567 118.853 159.567C116.885 159.567 115.274 161.178 115.274 163.147C115.274 165.116 116.885 166.726 118.853 166.726ZM118.853 161.715C119.641 161.715 120.285 162.359 120.285 163.147C120.285 163.934 119.641 164.579 118.853 164.579C118.066 164.579 117.421 163.934 117.421 163.147C117.421 162.359 118.066 161.715 118.853 161.715ZM109.188 129.21C107.362 129.21 105.823 130.32 105.179 131.931C104.749 131.788 104.284 131.716 103.818 131.716C101.241 131.716 99.1646 133.793 99.1646 136.37C99.1646 136.37 99.1646 136.37 99.1646 136.406C96.9094 136.907 95.1911 138.912 95.1911 141.31C95.1911 142.026 95.3343 142.706 95.6207 143.351C94.2604 144.568 93.437 146.322 93.437 148.183C93.437 149.866 94.0814 151.405 95.1911 152.586C95.1911 153.624 95.2269 155.2 95.2269 155.343C95.2269 158.744 97.9117 161.572 101.277 161.786C102.351 163.97 104.57 165.366 107.04 165.366C110.584 165.366 113.484 162.467 113.484 158.923V133.506C113.484 131.144 111.551 129.21 109.188 129.21ZM105.107 148.183C104.606 148.183 104.176 148.541 104.069 149.042C103.675 151.011 101.921 152.479 99.8448 152.479C99.0215 152.479 98.2339 152.228 97.5537 151.799C96.3008 151.011 95.5491 149.651 95.5491 148.183C95.5491 146.787 96.2292 145.534 97.339 144.711H98.7351C99.272 144.711 99.7374 144.353 99.8448 143.852C99.988 143.172 99.451 142.563 98.8067 142.563H97.6611C97.4464 142.169 97.339 141.74 97.339 141.274C97.339 139.878 98.3413 138.733 99.6658 138.482C100.418 139.95 101.921 140.988 103.675 141.024C104.284 141.024 104.821 140.594 104.856 139.986C104.892 139.377 104.391 138.876 103.783 138.876C102.673 138.876 101.706 138.124 101.384 137.122C101.348 137.014 101.313 136.907 101.313 136.8C101.313 136.764 101.313 136.764 101.313 136.728C101.313 136.621 101.277 136.513 101.277 136.37C101.277 134.974 102.386 133.864 103.783 133.864C104.32 133.864 104.856 134.043 105.286 134.365C105.537 134.544 105.895 134.652 106.217 134.544C106.682 134.401 107.004 133.972 107.004 133.506C107.004 133.506 107.004 133.506 107.004 133.47C107.004 132.217 108.15 131.179 109.439 131.358C110.513 131.502 111.3 132.468 111.3 133.578V158.779C111.3 160.856 109.868 162.717 107.863 163.111C105.716 163.54 103.675 162.288 102.959 160.319C102.816 159.853 102.351 159.567 101.885 159.603H101.778C101.742 159.603 101.67 159.603 101.635 159.603C99.272 159.603 97.339 157.67 97.339 155.307C97.339 155.235 97.339 154.698 97.3748 154.09C98.1265 154.412 98.9857 154.591 99.8448 154.591C102.959 154.591 105.572 152.372 106.181 149.4C106.324 148.756 105.823 148.147 105.143 148.147H105.107V148.183Z" fill="white"/>
<path d="M201.857 119.806H148.003C147.435 119.806 146.974 120.267 146.974 120.836V172.677C146.974 173.246 147.435 173.707 148.003 173.707H201.857C202.426 173.707 202.886 173.246 202.886 172.677V120.836C202.886 120.267 202.426 119.806 201.857 119.806Z" fill="white"/>
<path d="M160.24 136.469H166.78L166.785 137.536H166.718C165.548 137.536 165.907 138.151 165.998 138.382L170.884 150.109L172.763 146.259L169.487 138.481C169.487 138.481 168.926 137.538 167.628 137.538L167.623 136.472H174.694V137.538C174.694 137.538 173.923 137.609 173.499 138.179L174.979 141.744L175.001 141.694L176.721 138.185C176.721 138.185 176.859 137.536 175.534 137.536V136.469H180.419V137.536C180.419 137.536 179.072 137.508 178.437 138.185L175.769 143.635L178.397 149.95L184.151 138.17C184.151 138.17 184.47 137.536 181.26 137.536V136.469H186.874L186.871 137.536C186.871 137.536 186.191 137.53 185.883 138.164C179.92 150.374 177.843 154.601 177.843 154.601H176.289L173.563 148.144L170.414 154.601H168.703L162.018 138.745C162.018 138.745 161.665 137.552 160.24 137.552V136.469Z" fill="#4154AF"/>
<path d="M185.626 146.53C186.286 146.303 186.569 145.382 186.257 144.473C185.944 143.564 185.156 143.011 184.495 143.238C183.834 143.465 183.552 144.386 183.864 145.295C184.176 146.204 184.965 146.757 185.626 146.53Z" fill="#F9AE08"/>
<path d="M183.498 150.14C183.413 150.223 183.271 150.182 183.242 150.067C183.233 150.031 183.238 149.993 183.255 149.959C183.648 149.197 184.484 147.956 186.123 146.797C186.151 146.768 188.509 145.554 188.651 148.747C188.678 149.46 188.651 154.762 188.651 155.1C188.651 155.111 188.644 155.12 188.635 155.124L184.534 156.768C184.515 156.776 184.495 156.76 184.498 156.74C184.499 156.738 184.499 156.736 184.5 156.734C184.747 156.145 186.788 151.13 186.067 148.875C186.093 148.904 185.825 147.905 183.498 150.14Z" fill="#4154AF"/>
<path d="M166.835 28.4785C166.984 28.6234 167.126 28.7702 167.257 28.9232C168.086 29.8573 168.684 30.9551 169.01 32.1367C169.335 33.3183 169.379 34.554 169.138 35.7537C168.897 36.9534 168.377 38.0869 167.616 39.0717C166.856 40.0565 165.874 40.8677 164.741 41.4463C163.609 42.025 162.355 42.3564 161.071 42.4165C159.786 42.4766 158.504 42.2638 157.317 41.7937C156.131 41.3236 155.069 40.608 154.21 39.699C153.352 38.7899 152.717 37.7104 152.353 36.539C152.237 36.1735 152.151 35.8001 152.095 35.4221C151.834 33.7611 152.115 32.064 152.901 30.5597C153.687 29.0554 154.94 27.8162 156.491 27.0094C158.042 26.2026 159.816 25.867 161.573 26.0477C163.331 26.2284 164.988 26.9168 166.321 28.0201C166.499 28.1633 166.669 28.3168 166.835 28.4785Z" fill="#4154AF"/>
</svg>
