<svg width="270" height="261" viewBox="0 0 270 261" fill="none" xmlns="http://www.w3.org/2000/svg">
<circle opacity="0.3" cx="144.58" cy="142.836" r="108.871" fill="#B3BEE3"/>
<path opacity="0.1" d="M174.192 183.336C174.192 225.907 139.682 260.417 97.111 260.417C54.5406 260.417 20.0304 225.907 20.0304 183.336C20.0304 140.766 54.5406 106.256 97.111 106.256C139.682 106.256 174.192 140.766 174.192 183.336Z" fill="#5162B3"/>
<path opacity="0.2" d="M270 82.304C270 109.001 248.358 130.643 221.661 130.643C194.964 130.643 173.322 109.001 173.322 82.304C173.322 55.6073 194.964 33.9653 221.661 33.9653C248.358 33.9653 270 55.6073 270 82.304Z" fill="#5162B3"/>
<path d="M69.6774 34.8387C69.6774 54.0796 54.0796 69.6774 34.8387 69.6774C15.5978 69.6774 0 54.0796 0 34.8387C0 15.5978 15.5978 0 34.8387 0C54.0796 0 69.6774 15.5978 69.6774 34.8387Z" fill="#5162B3"/>
<path opacity="0.2" d="M20.9001 80.5645C20.9001 85.1342 17.1956 88.8387 12.6259 88.8387C8.05617 88.8387 4.35168 85.1342 4.35168 80.5645C4.35168 75.9948 8.05617 72.2903 12.6259 72.2903C17.1956 72.2903 20.9001 75.9948 20.9001 80.5645Z" fill="#5162B3"/>
<path opacity="0.4" d="M87.9667 14.3697C87.9667 18.9394 84.2622 22.6438 79.6925 22.6438C75.1228 22.6438 71.4183 18.9394 71.4183 14.3697C71.4183 9.79994 75.1228 6.09546 79.6925 6.09546C84.2622 6.09546 87.9667 9.79994 87.9667 14.3697Z" fill="#5162B3"/>
<mask id="mask0_437_3096" style="mask-type:alpha" maskUnits="userSpaceOnUse" x="34" y="0" width="219" height="252">
<path fill-rule="evenodd" clip-rule="evenodd" d="M252.59 0.865845H34.8484V142.83V153.285H35.3439C40.6055 208.508 87.1183 251.701 143.719 251.701C200.32 251.701 246.833 208.508 252.095 153.285H252.59V142.83V0.865845Z" fill="#C4C4C4"/>
</mask>
<g mask="url(#mask0_437_3096)">
<path d="M189.175 298.952H101.581C98.3886 298.952 95.2278 298.323 92.2788 297.102C89.3298 295.88 86.6502 294.09 84.3932 291.833C82.1361 289.575 80.3457 286.896 79.1241 283.947C77.9026 280.998 77.2739 277.837 77.2739 274.645V47.8244C77.2812 41.3801 79.8444 35.2018 84.4012 30.645C88.958 26.0882 95.1363 23.525 101.581 23.5177H189.175C195.619 23.525 201.798 26.0882 206.354 30.645C210.911 35.2018 213.475 41.3801 213.482 47.8244V88.7918H214.991V118.976H213.482V274.645C213.482 281.092 210.921 287.274 206.363 291.832C201.804 296.391 195.622 298.952 189.175 298.952Z" fill="#3F3D56"/>
<path d="M190.149 292.718H102.134C97.2965 292.712 92.6582 290.788 89.2371 287.367C85.8161 283.946 83.8917 279.308 83.8861 274.47V47.9826C83.8917 43.1446 85.8161 38.5063 89.2371 35.0853C92.6582 31.6642 97.2964 29.7399 102.134 29.7343H113.373L113.161 30.2539C112.66 31.4859 112.469 32.8222 112.605 34.1453C112.742 35.4684 113.201 36.7377 113.943 37.8416C114.685 38.9455 115.687 39.8501 116.861 40.476C118.034 41.1018 119.344 41.4296 120.674 41.4306H170.855C172.185 41.4296 173.495 41.1017 174.668 40.4759C175.842 39.85 176.844 38.9454 177.586 37.8415C178.328 36.7376 178.787 35.4683 178.923 34.1452C179.06 32.8222 178.869 31.4859 178.368 30.2539L178.156 29.7343H190.149C194.987 29.7399 199.626 31.6643 203.047 35.0853C206.468 38.5063 208.392 43.1446 208.398 47.9826V274.47C208.392 279.308 206.468 283.946 203.047 287.367C199.626 290.788 194.987 292.712 190.149 292.718Z" fill="#FEFEFE"/>
<path d="M185.038 91.304H177.732C177.458 91.3044 177.186 91.2507 176.932 91.1459C176.679 91.0412 176.448 90.8875 176.254 90.6936C176.06 90.4997 175.906 90.2695 175.801 90.016C175.696 89.7625 175.642 89.4909 175.642 89.2165C175.642 88.9421 175.696 88.6704 175.801 88.4169C175.906 88.1635 176.06 87.9332 176.254 87.7394C176.448 87.5455 176.679 87.3918 176.932 87.287C177.186 87.1823 177.458 87.1285 177.732 87.1289H185.038C185.592 87.1297 186.122 87.3499 186.513 87.7413C186.904 88.1328 187.123 88.6633 187.123 89.2165C187.123 89.7696 186.904 90.3002 186.513 90.6916C186.122 91.083 185.592 91.3033 185.038 91.304Z" fill="white"/>
<path d="M185.036 214.344H177.729C177.176 214.344 176.645 214.125 176.253 213.733C175.862 213.342 175.642 212.811 175.642 212.257C175.642 211.703 175.862 211.172 176.253 210.781C176.645 210.389 177.176 210.169 177.729 210.169H185.036C185.589 210.17 186.119 210.39 186.51 210.782C186.901 211.173 187.12 211.704 187.12 212.257C187.12 212.81 186.901 213.341 186.51 213.732C186.119 214.123 185.589 214.344 185.036 214.344Z" fill="white"/>
<path d="M185.047 255.31H129.205C128.651 255.309 128.121 255.089 127.73 254.697C127.339 254.306 127.12 253.775 127.12 253.222C127.12 252.669 127.339 252.138 127.73 251.747C128.121 251.355 128.651 251.135 129.205 251.134H185.047C185.601 251.134 186.132 251.354 186.523 251.746C186.915 252.137 187.135 252.668 187.135 253.222C187.135 253.776 186.915 254.307 186.523 254.698C186.132 255.09 185.601 255.31 185.047 255.31Z" fill="#E6E6E6"/>
<path d="M147.202 126.292C161.632 126.292 173.331 114.593 173.331 100.163C173.331 85.7321 161.632 74.0337 147.202 74.0337C132.771 74.0337 121.073 85.7321 121.073 100.163C121.073 114.593 132.771 126.292 147.202 126.292Z" fill="#4154AF"/>
<g clip-path="url(#clip0_437_3096)">
<g filter="url(#filter0_d_437_3096)">
<path d="M147.205 89.0588L137.406 93.4137V99.9459C137.406 105.988 141.587 111.639 147.205 113.01C152.822 111.639 157.003 105.988 157.003 99.9459V93.4137L147.205 89.0588ZM149.926 101.677L150.906 105.901L147.205 103.669L143.503 105.901L144.483 101.688L141.217 98.8681L145.528 98.498L147.205 94.5242L148.881 98.4871L153.192 98.8572L149.926 101.677Z" fill="white"/>
</g>
</g>
<path d="M144.119 194.248C156.008 194.248 165.647 184.61 165.647 172.72C165.647 160.831 156.008 151.192 144.119 151.192C132.229 151.192 122.591 160.831 122.591 172.72C122.591 184.61 132.229 194.248 144.119 194.248Z" fill="#FFB8B8"/>
<path d="M161.975 203.315L165.273 208.311L174.063 232.923L167.031 328.736L125.717 329.616L120.443 219.738L131.491 205.928L161.975 203.315Z" fill="#CCCCCC"/>
<path d="M103.739 222.375L96.7071 221.496C96.7071 221.496 94.9491 222.375 94.0701 228.529C93.1911 234.682 82.6428 289.181 82.6428 289.181L96.7071 355.986L112.529 334.89L102.86 297.971L112.53 261.052L103.739 222.375Z" fill="#2F2E41"/>
<path d="M193.4 221.496H198.673L211.859 292.696L199.553 348.075L187.246 327.857L190.762 305.882L189.005 286.544L182.851 275.116L193.4 221.496Z" fill="#2F2E41"/>
<path d="M156.838 172.721L152.924 171.742C152.924 171.742 149.989 155.107 143.139 157.064C136.289 159.021 118.675 160.978 118.675 153.15C118.675 145.321 135.31 138.472 145.096 139.45C154.881 140.429 167.379 143.675 170.538 158.042C175.602 181.074 160.089 186.892 160.089 186.892L160.347 186.053C161.064 183.725 161.115 181.242 160.495 178.886C159.875 176.53 158.609 174.395 156.838 172.721Z" fill="#2F2E41"/>
<path d="M97.5869 221.495L125.716 210.068L132.308 205.234L152.086 292.696L165.271 253.14L161.316 202.596L197.795 221.495L185.489 281.269L183.731 304.123L189.005 322.583C189.005 322.583 207.464 335.768 201.311 349.832C195.158 363.896 188.126 364.775 188.126 364.775C188.126 364.775 158.239 336.647 156.481 329.615C154.723 322.583 152.086 310.276 152.086 310.276C152.086 310.276 137.143 366.534 119.562 365.654C101.982 364.775 101.982 346.316 101.982 346.316L106.377 326.978L113.409 306.76L109.893 273.357L97.5869 221.495Z" fill="#2F2E41"/>
</g>
<path d="M40.6537 42.6462H30.2451V40.8707L35.4015 35.2464C36.1458 34.4171 36.6738 33.7261 36.9857 33.1732C37.3047 32.6132 37.4641 32.0533 37.4641 31.4933C37.4641 30.7562 37.255 30.1608 36.8369 29.7072C36.4257 29.2536 35.8693 29.0267 35.1676 29.0267C34.3313 29.0267 33.6827 29.2819 33.222 29.7922C32.7613 30.3026 32.5309 31.0007 32.5309 31.8867H29.9474C29.9474 30.944 30.16 30.097 30.5853 29.3457C31.0176 28.5873 31.6307 27.999 32.4246 27.5808C33.2255 27.1626 34.147 26.9535 35.1889 26.9535C36.6915 26.9535 37.8752 27.3327 38.74 28.0911C39.6118 28.8424 40.0477 29.8844 40.0477 31.2169C40.0477 31.9895 39.828 32.8011 39.3885 33.6516C38.9561 34.4951 38.2438 35.4555 37.2515 36.5329L33.4665 40.5836H40.6537V42.6462Z" fill="white"/>
<defs>
<filter id="filter0_d_437_3096" x="133.922" y="85.575" width="26.5645" height="30.9194" filterUnits="userSpaceOnUse" color-interpolation-filters="sRGB">
<feFlood flood-opacity="0" result="BackgroundImageFix"/>
<feColorMatrix in="SourceAlpha" type="matrix" values="0 0 0 0 0 0 0 0 0 0 0 0 0 0 0 0 0 0 127 0" result="hardAlpha"/>
<feOffset/>
<feGaussianBlur stdDeviation="1.74194"/>
<feComposite in2="hardAlpha" operator="out"/>
<feColorMatrix type="matrix" values="0 0 0 0 0 0 0 0 0 0 0 0 0 0 0 0 0 0 0.25 0"/>
<feBlend mode="normal" in2="BackgroundImageFix" result="effect1_dropShadow_437_3096"/>
<feBlend mode="normal" in="SourceGraphic" in2="effect1_dropShadow_437_3096" result="shape"/>
</filter>
<clipPath id="clip0_437_3096">
<rect width="26.129" height="26.129" fill="white" transform="translate(134.136 87.9686)"/>
</clipPath>
</defs>
</svg>
