<svg width="270" height="260" viewBox="0 0 270 260" fill="none" xmlns="http://www.w3.org/2000/svg">
<circle opacity="0.3" cx="144.346" cy="142.608" r="108.696" fill="#B3BEE3"/>
<path opacity="0.1" d="M173.917 183.042C173.917 225.544 139.463 259.998 96.9608 259.998C54.4589 259.998 20.0043 225.544 20.0043 183.042C20.0043 140.54 54.4589 106.085 96.9608 106.085C139.463 106.085 173.917 140.54 173.917 183.042Z" fill="#5162B3"/>
<path opacity="0.2" d="M269.568 82.1732C269.568 108.827 247.961 130.434 221.307 130.434C194.654 130.434 173.046 108.827 173.046 82.1732C173.046 55.5195 194.654 33.9124 221.307 33.9124C247.961 33.9124 269.568 55.5195 269.568 82.1732Z" fill="#5162B3"/>
<path d="M69.5664 34.7826C69.5664 53.9925 53.9937 69.5652 34.7838 69.5652C15.5739 69.5652 0.0012207 53.9925 0.0012207 34.7826C0.0012207 15.5727 15.5739 0 34.7838 0C53.9937 0 69.5664 15.5727 69.5664 34.7826Z" fill="#5162B3"/>
<path opacity="0.6" d="M20.8711 80.4337C20.8711 84.9961 17.1726 88.6946 12.6102 88.6946C8.04788 88.6946 4.34937 84.9961 4.34937 80.4337C4.34937 75.8714 8.04788 72.1729 12.6102 72.1729C17.1726 72.1729 20.8711 75.8714 20.8711 80.4337Z" fill="#5162B3"/>
<path opacity="0.4" d="M87.8311 14.3467C87.8311 18.909 84.1325 22.6076 79.5702 22.6076C75.0078 22.6076 71.3093 18.909 71.3093 14.3467C71.3093 9.78433 75.0078 6.08582 79.5702 6.08582C84.1325 6.08582 87.8311 9.78433 87.8311 14.3467Z" fill="#5162B3"/>
<mask id="mask0_437_3138" style="mask-type:alpha" maskUnits="userSpaceOnUse" x="34" y="0" width="219" height="252">
<path fill-rule="evenodd" clip-rule="evenodd" d="M252.181 0.860229H34.7893V142.595V153.034H35.2841C40.5374 208.168 86.9752 251.291 143.485 251.291C199.995 251.291 246.433 208.168 251.686 153.034H252.181V142.595V0.860229Z" fill="#C4C4C4"/>
</mask>
<g mask="url(#mask0_437_3138)">
<path d="M188.876 298.468H101.422C98.2356 298.468 95.0799 297.841 92.1356 296.621C89.1914 295.402 86.5161 293.614 84.2627 291.361C82.0092 289.107 80.2217 286.432 79.0021 283.488C77.7826 280.543 77.1549 277.388 77.1549 274.201V47.7454C77.1622 41.3115 79.7213 35.1432 84.2707 30.5937C88.8202 26.0443 94.9885 23.4852 101.422 23.4779H188.876C195.31 23.4852 201.478 26.0442 206.028 30.5937C210.577 35.1432 213.136 41.3115 213.143 47.7454V88.6469H214.65V118.783H213.143V274.201C213.143 280.637 210.587 286.809 206.036 291.36C201.485 295.911 195.312 298.468 188.876 298.468Z" fill="#3F3D56"/>
<path d="M189.848 292.251H101.975C97.1452 292.245 92.5144 290.324 89.0989 286.909C85.6834 283.493 83.7621 278.862 83.7565 274.032V47.9097C83.7621 43.0794 85.6834 38.4486 89.0989 35.0331C92.5144 31.6176 97.1452 29.6963 101.975 29.6907H113.196L112.985 30.2095C112.484 31.4395 112.293 32.7737 112.43 34.0946C112.566 35.4156 113.024 36.6828 113.765 37.7849C114.506 38.8871 115.506 39.7903 116.678 40.4151C117.85 41.0399 119.157 41.3672 120.485 41.3682H170.586C171.914 41.3672 173.221 41.0398 174.393 40.415C175.564 39.7901 176.565 38.8869 177.305 37.7848C178.046 36.6827 178.505 35.4155 178.641 34.0946C178.777 32.7736 178.586 31.4395 178.086 30.2095L177.875 29.6907H189.848C194.679 29.6963 199.31 31.6176 202.725 35.0331C206.141 38.4486 208.062 43.0794 208.067 47.9097V274.032C208.062 278.862 206.141 283.493 202.725 286.909C199.31 290.324 194.679 292.245 189.848 292.251Z" fill="#FEFEFE"/>
<path d="M217.729 170.72H68.8405C66.7303 170.718 64.7072 169.879 63.215 168.386C61.7228 166.894 60.8835 164.871 60.8811 162.761V115.004C60.8835 112.894 61.7228 110.871 63.215 109.379C64.7072 107.887 66.7303 107.047 68.8405 107.045H217.729C219.839 107.047 221.862 107.887 223.354 109.379C224.847 110.871 225.686 112.894 225.688 115.004V162.761C225.686 164.871 224.847 166.894 223.354 168.386C221.862 169.879 219.839 170.718 217.729 170.72Z" fill="white"/>
<path d="M217.729 170.72H68.8405C66.7303 170.718 64.7072 169.879 63.215 168.386C61.7228 166.894 60.8835 164.871 60.8811 162.761V115.004C60.8835 112.894 61.7228 110.871 63.215 109.379C64.7072 107.887 66.7303 107.047 68.8405 107.045H217.729C219.839 107.047 221.862 107.887 223.354 109.379C224.847 110.871 225.686 112.894 225.688 115.004V162.761C225.686 164.871 224.847 166.894 223.354 168.386C221.862 169.879 219.839 170.718 217.729 170.72ZM68.8405 107.981C66.9786 107.983 65.1935 108.724 63.8768 110.041C62.5602 111.357 61.8196 113.142 61.8175 115.004V162.761C61.8196 164.623 62.5602 166.408 63.8768 167.725C65.1935 169.041 66.9786 169.782 68.8405 169.784H217.729C219.591 169.782 221.376 169.041 222.693 167.725C224.009 166.408 224.75 164.623 224.752 162.761V115.004C224.75 113.142 224.009 111.357 222.693 110.041C221.376 108.724 219.591 107.983 217.729 107.981H68.8405Z" fill="#4154AF"/>
<path d="M162.816 136.316H110.846C109.852 136.316 108.899 135.922 108.197 135.219C107.495 134.517 107.1 133.564 107.1 132.571C107.1 131.577 107.495 130.625 108.197 129.922C108.899 129.22 109.852 128.825 110.846 128.825H162.816C163.809 128.825 164.762 129.22 165.465 129.922C166.167 130.625 166.562 131.577 166.562 132.571C166.562 133.564 166.167 134.517 165.465 135.219C164.762 135.922 163.809 136.316 162.816 136.316Z" fill="#4154AF"/>
<path d="M211.041 148.948H110.846C109.852 148.948 108.899 148.554 108.197 147.851C107.495 147.149 107.1 146.196 107.1 145.203C107.1 144.209 107.495 143.257 108.197 142.554C108.899 141.852 109.852 141.457 110.846 141.457H211.041C212.034 141.457 212.987 141.852 213.689 142.554C214.392 143.257 214.786 144.209 214.786 145.203C214.786 146.196 214.392 147.149 213.689 147.851C212.987 148.554 212.034 148.948 211.041 148.948Z" fill="#4154AF"/>
<path d="M85.8372 152.934C93.5946 152.934 99.8833 146.646 99.8833 138.888C99.8833 131.131 93.5946 124.842 85.8372 124.842C78.0798 124.842 71.7911 131.131 71.7911 138.888C71.7911 146.646 78.0798 152.934 85.8372 152.934Z" fill="#4154AF"/>
<path d="M211.029 164.167H197.92C196.926 164.167 195.973 163.772 195.271 163.07C194.569 162.367 194.174 161.415 194.174 160.421C194.174 159.428 194.569 158.475 195.271 157.773C195.973 157.07 196.926 156.676 197.92 156.676H211.029C211.521 156.676 212.008 156.772 212.463 156.961C212.917 157.149 213.33 157.425 213.678 157.773C214.026 158.12 214.301 158.533 214.49 158.988C214.678 159.442 214.775 159.929 214.775 160.421C214.775 160.913 214.678 161.4 214.49 161.855C214.301 162.309 214.026 162.722 213.678 163.07C213.33 163.418 212.917 163.693 212.463 163.882C212.008 164.07 211.521 164.167 211.029 164.167Z" fill="white"/>
<path d="M211.029 164.167H197.92C196.926 164.167 195.973 163.772 195.271 163.07C194.569 162.367 194.174 161.415 194.174 160.421C194.174 159.428 194.569 158.475 195.271 157.773C195.973 157.07 196.926 156.676 197.92 156.676H211.029C211.521 156.676 212.008 156.772 212.463 156.961C212.917 157.149 213.33 157.425 213.678 157.773C214.026 158.12 214.301 158.533 214.49 158.988C214.678 159.442 214.775 159.929 214.775 160.421C214.775 160.913 214.678 161.4 214.49 161.855C214.301 162.309 214.026 162.722 213.678 163.07C213.33 163.418 212.917 163.693 212.463 163.882C212.008 164.07 211.521 164.167 211.029 164.167Z" fill="#E6E6E6"/>
<path d="M188.473 94.8055H105.626C104.451 94.8041 103.326 94.3371 102.495 93.5068C101.665 92.6765 101.198 91.5507 101.197 90.3765V63.8028C101.198 62.6286 101.665 61.5029 102.495 60.6726C103.326 59.8423 104.451 59.3752 105.626 59.3739H188.473C189.647 59.3752 190.773 59.8423 191.603 60.6726C192.434 61.5029 192.901 62.6286 192.902 63.8028V90.3765C192.901 91.5507 192.434 92.6765 191.603 93.5068C190.773 94.3371 189.647 94.8041 188.473 94.8055ZM105.626 59.8949C104.59 59.8961 103.596 60.3082 102.864 61.0408C102.131 61.7735 101.719 62.7668 101.718 63.8028V90.3765C101.719 91.4126 102.131 92.4059 102.864 93.1385C103.596 93.8711 104.59 94.2832 105.626 94.2844H188.473C189.509 94.2832 190.502 93.8711 191.235 93.1385C191.968 92.4059 192.38 91.4126 192.381 90.3765V63.8028C192.38 62.7668 191.968 61.7735 191.235 61.0408C190.502 60.3082 189.509 59.8961 188.473 59.8949H105.626Z" fill="#CCCCCC"/>
<path d="M157.92 75.6584H129.002C128.45 75.6577 127.92 75.4378 127.53 75.047C127.14 74.6562 126.921 74.1265 126.921 73.5742C126.921 73.0219 127.14 72.4922 127.53 72.1014C127.92 71.7106 128.45 71.4907 129.002 71.49H157.92C158.473 71.4907 159.002 71.7106 159.392 72.1014C159.783 72.4922 160.002 73.0219 160.002 73.5742C160.002 74.1265 159.783 74.6562 159.392 75.047C159.002 75.4378 158.473 75.6577 157.92 75.6584Z" fill="#E6E6E6"/>
<path d="M184.755 82.6964H129.002C128.45 82.6956 127.92 82.4757 127.53 82.0849C127.14 81.6941 126.921 81.1644 126.921 80.6122C126.921 80.0599 127.14 79.5302 127.53 79.1394C127.92 78.7486 128.45 78.5287 129.002 78.528H184.755C185.029 78.5276 185.3 78.5812 185.553 78.6858C185.806 78.7904 186.036 78.9438 186.23 79.1374C186.424 79.331 186.578 79.5609 186.683 79.8139C186.788 80.067 186.842 80.3382 186.842 80.6122C186.842 80.8861 186.788 81.1574 186.683 81.4104C186.578 81.6635 186.424 81.8933 186.23 82.0869C186.036 82.2805 185.806 82.434 185.553 82.5385C185.3 82.6431 185.029 82.6967 184.755 82.6964Z" fill="#E6E6E6"/>
<path d="M115.09 84.9078C119.407 84.9078 122.906 81.4086 122.906 77.092C122.906 72.7755 119.407 69.2762 115.09 69.2762C110.774 69.2762 107.275 72.7755 107.275 77.092C107.275 81.4086 110.774 84.9078 115.09 84.9078Z" fill="#E6E6E6"/>
<path d="M184.743 91.1546H177.448C177.174 91.155 176.903 91.1014 176.65 90.9968C176.396 90.8922 176.166 90.7387 175.973 90.5452C175.779 90.3516 175.625 90.1217 175.52 89.8687C175.415 89.6156 175.361 89.3444 175.361 89.0704C175.361 88.7965 175.415 88.5252 175.52 88.2722C175.625 88.0191 175.779 87.7892 175.973 87.5957C176.166 87.4021 176.396 87.2486 176.65 87.1441C176.903 87.0395 177.174 86.9858 177.448 86.9862H184.743C185.295 86.987 185.825 87.2069 186.215 87.5977C186.605 87.9884 186.824 88.5181 186.824 89.0704C186.824 89.6227 186.605 90.1524 186.215 90.5432C185.825 90.934 185.295 91.1539 184.743 91.1546Z" fill="white"/>
<path d="M184.743 91.1546H177.448C177.174 91.155 176.903 91.1014 176.65 90.9968C176.396 90.8922 176.166 90.7387 175.973 90.5452C175.779 90.3516 175.625 90.1217 175.52 89.8687C175.415 89.6156 175.361 89.3444 175.361 89.0704C175.361 88.7965 175.415 88.5252 175.52 88.2722C175.625 88.0191 175.779 87.7892 175.973 87.5957C176.166 87.4021 176.396 87.2486 176.65 87.1441C176.903 87.0395 177.174 86.9858 177.448 86.9862H184.743C185.295 86.987 185.825 87.2069 186.215 87.5977C186.605 87.9884 186.824 88.5181 186.824 89.0704C186.824 89.6227 186.605 90.1524 186.215 90.5432C185.825 90.934 185.295 91.1539 184.743 91.1546Z" fill="#CCCCCC"/>
<path d="M188.473 217.648H105.626C104.451 217.647 103.326 217.18 102.495 216.35C101.665 215.52 101.198 214.394 101.197 213.22V186.646C101.198 185.472 101.665 184.346 102.495 183.516C103.326 182.685 104.451 182.218 105.626 182.217H188.473C189.647 182.218 190.773 182.685 191.603 183.516C192.434 184.346 192.901 185.472 192.902 186.646V213.22C192.901 214.394 192.434 215.52 191.603 216.35C190.773 217.18 189.647 217.647 188.473 217.648ZM105.626 182.738C104.59 182.739 103.596 183.151 102.864 183.884C102.131 184.616 101.719 185.61 101.718 186.646V213.22C101.719 214.256 102.131 215.249 102.864 215.982C103.596 216.714 104.59 217.126 105.626 217.127H188.473C189.509 217.126 190.502 216.714 191.235 215.982C191.968 215.249 192.38 214.256 192.381 213.22V186.646C192.38 185.61 191.968 184.616 191.235 183.884C190.502 183.151 189.509 182.739 188.473 182.738H105.626Z" fill="#CCCCCC"/>
<path d="M157.915 198.493H128.997C128.444 198.493 127.914 198.274 127.523 197.883C127.132 197.492 126.913 196.962 126.913 196.409C126.913 195.857 127.132 195.326 127.523 194.936C127.914 194.545 128.444 194.325 128.997 194.325H157.915C158.468 194.326 158.997 194.546 159.387 194.936C159.777 195.327 159.997 195.857 159.997 196.409C159.997 196.962 159.777 197.491 159.387 197.882C158.997 198.273 158.468 198.493 157.915 198.493Z" fill="#E6E6E6"/>
<path d="M184.755 205.524H129.002C128.45 205.523 127.92 205.303 127.53 204.912C127.14 204.521 126.921 203.992 126.921 203.439C126.921 202.887 127.14 202.357 127.53 201.967C127.92 201.576 128.45 201.356 129.002 201.355H184.755C185.307 201.355 185.837 201.575 186.228 201.966C186.619 202.356 186.839 202.887 186.839 203.439C186.839 203.992 186.619 204.522 186.228 204.913C185.837 205.304 185.307 205.524 184.755 205.524Z" fill="#E6E6E6"/>
<path d="M115.09 207.743C119.407 207.743 122.906 204.244 122.906 199.927C122.906 195.611 119.407 192.111 115.09 192.111C110.774 192.111 107.275 195.611 107.275 199.927C107.275 204.244 110.774 207.743 115.09 207.743Z" fill="#E6E6E6"/>
<path d="M184.74 213.998H177.445C176.893 213.998 176.362 213.778 175.972 213.387C175.581 212.996 175.361 212.466 175.361 211.913C175.361 211.361 175.581 210.831 175.972 210.44C176.362 210.049 176.893 209.829 177.445 209.829H184.74C185.292 209.83 185.822 210.05 186.212 210.441C186.602 210.831 186.821 211.361 186.821 211.913C186.821 212.466 186.602 212.995 186.212 213.386C185.822 213.777 185.292 213.997 184.74 213.998Z" fill="white"/>
<path d="M184.74 213.998H177.445C176.893 213.998 176.362 213.778 175.972 213.387C175.581 212.996 175.361 212.466 175.361 211.913C175.361 211.361 175.581 210.831 175.972 210.44C176.362 210.049 176.893 209.829 177.445 209.829H184.74C185.292 209.83 185.822 210.05 186.212 210.441C186.602 210.831 186.821 211.361 186.821 211.913C186.821 212.466 186.602 212.995 186.212 213.386C185.822 213.777 185.292 213.997 184.74 213.998Z" fill="#CCCCCC"/>
<path d="M188.473 267.009H105.626C104.451 267.008 103.326 266.541 102.495 265.711C101.665 264.88 101.198 263.755 101.197 262.58V236.007C101.198 234.833 101.665 233.707 102.495 232.877C103.326 232.046 104.451 231.579 105.626 231.578H188.473C189.647 231.579 190.773 232.046 191.603 232.877C192.434 233.707 192.901 234.833 192.902 236.007V262.58C192.901 263.755 192.434 264.88 191.603 265.711C190.773 266.541 189.647 267.008 188.473 267.009ZM105.626 232.099C104.59 232.1 103.596 232.512 102.864 233.245C102.131 233.977 101.719 234.971 101.718 236.007V262.58C101.719 263.617 102.131 264.61 102.864 265.342C103.596 266.075 104.59 266.487 105.626 266.488H188.473C189.509 266.487 190.502 266.075 191.235 265.342C191.968 264.61 192.38 263.617 192.381 262.58V236.007C192.38 234.971 191.968 233.977 191.235 233.245C190.502 232.512 189.509 232.1 188.473 232.099H105.626Z" fill="#CCCCCC"/>
<path d="M157.915 247.854H128.997C128.444 247.854 127.914 247.635 127.523 247.244C127.132 246.853 126.913 246.323 126.913 245.77C126.913 245.217 127.132 244.687 127.523 244.296C127.914 243.906 128.444 243.686 128.997 243.686H157.915C158.468 243.687 158.997 243.907 159.387 244.297C159.777 244.688 159.997 245.218 159.997 245.77C159.997 246.323 159.777 246.852 159.387 247.243C158.997 247.634 158.468 247.854 157.915 247.854Z" fill="#E6E6E6"/>
<path d="M184.755 254.892H129.002C128.45 254.892 127.92 254.672 127.53 254.281C127.14 253.89 126.921 253.361 126.921 252.808C126.921 252.256 127.14 251.726 127.53 251.335C127.92 250.945 128.45 250.725 129.002 250.724H184.755C185.307 250.724 185.837 250.944 186.228 251.334C186.619 251.725 186.839 252.255 186.839 252.808C186.839 253.361 186.619 253.891 186.228 254.282C185.837 254.673 185.307 254.892 184.755 254.892Z" fill="#E6E6E6"/>
<path d="M115.09 257.104C119.407 257.104 122.906 253.605 122.906 249.288C122.906 244.972 119.407 241.472 115.09 241.472C110.774 241.472 107.275 244.972 107.275 249.288C107.275 253.605 110.774 257.104 115.09 257.104Z" fill="#E6E6E6"/>
<path d="M137.794 188.682C142.905 188.682 147.049 184.539 147.049 179.427C147.049 174.316 142.905 170.172 137.794 170.172C132.683 170.172 128.539 174.316 128.539 179.427C128.539 184.539 132.683 188.682 137.794 188.682Z" fill="#FFB8B8"/>
<path d="M144.01 308.191H135.437C135.212 308.191 134.99 308.147 134.783 308.06C134.576 307.974 134.388 307.847 134.231 307.687C134.073 307.528 133.948 307.338 133.864 307.13C133.78 306.922 133.739 306.699 133.741 306.475L134.239 265.767C134.241 265.623 134.188 265.483 134.09 265.377C133.991 265.271 133.856 265.206 133.712 265.196C133.568 265.187 133.425 265.233 133.314 265.325C133.202 265.417 133.131 265.548 133.113 265.692L128.124 306.701C128.074 307.112 127.875 307.49 127.565 307.765C127.255 308.039 126.855 308.191 126.441 308.191H117.786C117.552 308.191 117.32 308.143 117.106 308.049C116.892 307.956 116.699 307.819 116.541 307.647C116.382 307.475 116.26 307.273 116.184 307.052C116.107 306.831 116.077 306.597 116.095 306.364L121.81 233.233L121.966 233.216L149.333 230.261L145.703 306.576C145.683 307.012 145.496 307.423 145.18 307.723C144.865 308.024 144.446 308.192 144.01 308.191Z" fill="#2F2E41"/>
<path d="M122.144 237.728C121.704 237.727 121.282 237.555 120.967 237.249C120.652 236.942 120.468 236.525 120.454 236.086C120.305 231.462 120.049 215.462 123.025 203.715C123.837 200.506 125.66 197.644 128.225 195.551C130.789 193.459 133.959 192.247 137.266 192.095C140.52 191.917 143.748 192.769 146.492 194.529C149.235 196.289 151.354 198.868 152.549 201.901C157.551 214.601 162.277 230.255 156.385 232.71C148.662 235.927 128.304 237.362 122.248 237.725C122.213 237.727 122.179 237.728 122.144 237.728Z" fill="#4154AF"/>
<path d="M157.521 170.067C157.666 170.217 157.823 170.355 157.99 170.479L157.019 189.142L152.978 191.21L155.303 197.717L162.813 194.75C163.419 194.51 163.932 194.08 164.273 193.524C164.615 192.968 164.767 192.317 164.706 191.667L162.739 170.498C163.383 170.018 163.865 169.353 164.122 168.592C164.378 167.831 164.397 167.009 164.176 166.237C163.954 165.465 163.503 164.779 162.882 164.269C162.261 163.76 161.5 163.452 160.699 163.386C159.898 163.32 159.097 163.499 158.401 163.9C157.704 164.3 157.147 164.903 156.802 165.629C156.457 166.354 156.341 167.167 156.469 167.96C156.598 168.753 156.964 169.488 157.521 170.067H157.521Z" fill="#FFB8B8"/>
<path d="M157.092 189.84L159.934 197.919C160.015 198.149 160.046 198.393 160.024 198.636C160.001 198.878 159.927 199.113 159.806 199.325C159.685 199.536 159.519 199.719 159.321 199.861C159.123 200.003 158.897 200.1 158.657 200.146L150.275 201.769C149.097 202.177 147.805 202.1 146.683 201.556C145.561 201.013 144.7 200.046 144.29 198.869C143.88 197.691 143.953 196.399 144.494 195.276C145.034 194.153 145.999 193.29 147.175 192.876L154.701 188.903C154.917 188.79 155.154 188.724 155.397 188.71C155.641 188.696 155.884 188.735 156.111 188.824C156.338 188.913 156.543 189.05 156.712 189.225C156.881 189.401 157.011 189.61 157.092 189.84V189.84Z" fill="#4154AF"/>
<path d="M117.433 170.067C117.287 170.217 117.13 170.355 116.963 170.479L117.935 189.142L121.976 191.21L119.651 197.717L112.141 194.75C111.534 194.51 111.022 194.08 110.68 193.524C110.339 192.968 110.187 192.317 110.247 191.667L112.214 170.498C111.571 170.018 111.088 169.353 110.832 168.592C110.575 167.831 110.556 167.009 110.778 166.237C110.999 165.465 111.45 164.779 112.072 164.269C112.693 163.76 113.454 163.452 114.255 163.386C115.055 163.32 115.857 163.499 116.553 163.9C117.249 164.3 117.807 164.903 118.152 165.629C118.497 166.354 118.613 167.167 118.484 167.96C118.356 168.753 117.989 169.488 117.433 170.067Z" fill="#FFB8B8"/>
<path d="M118.835 188.824C119.062 188.735 119.305 188.696 119.549 188.71C119.792 188.724 120.03 188.79 120.245 188.903L127.771 192.876C128.948 193.29 129.912 194.153 130.453 195.276C130.993 196.4 131.067 197.692 130.656 198.869C130.246 200.046 129.385 201.013 128.263 201.557C127.141 202.1 125.849 202.177 124.671 201.77L116.289 200.146C116.049 200.1 115.823 200.003 115.625 199.861C115.427 199.719 115.261 199.536 115.14 199.325C115.019 199.114 114.945 198.879 114.923 198.636C114.9 198.393 114.931 198.149 115.012 197.919L117.854 189.84C117.935 189.61 118.065 189.401 118.234 189.225C118.403 189.05 118.608 188.913 118.835 188.824Z" fill="#4154AF"/>
<path d="M141.382 181.003C141.333 179.823 141.629 178.653 142.234 177.638C142.839 176.623 143.727 175.807 144.788 175.288C147.602 173.836 149.369 170.738 148.594 167.909C147.603 164.288 142.675 161.94 138.682 163.186C137.602 163.569 136.559 164.054 135.57 164.632L132.961 166.031C131.846 166.589 130.772 167.223 129.745 167.929C128.207 169.063 127.001 170.588 126.254 172.347C125.507 174.105 125.246 176.032 125.498 177.926C126.012 181.607 128.423 184.983 131.722 187.294C132.984 188.237 134.442 188.885 135.987 189.19C137.569 189.45 139.33 189.154 140.486 188.171C142.294 186.633 142.107 184.059 141.522 181.909C141.445 181.613 141.398 181.309 141.382 181.003Z" fill="#2F2E41"/>
</g>
<path d="M37.186 42.6056H34.6173V30.1969L30.8278 31.4919V29.3158L36.857 27.0974H37.186V42.6056Z" fill="white"/>
</svg>
