<svg width="269" height="259" viewBox="0 0 269 259" fill="none" xmlns="http://www.w3.org/2000/svg">
<circle opacity="0.3" cx="143.516" cy="141.787" r="108.069" fill="#B3BEE3"/>
<path opacity="0.1" d="M172.91 181.989C172.91 224.246 138.654 258.502 96.3973 258.502C54.1406 258.502 19.8848 224.246 19.8848 181.989C19.8848 139.732 54.1406 105.477 96.3973 105.477C138.654 105.477 172.91 139.732 172.91 181.989Z" fill="#5162B3"/>
<path opacity="0.08" d="M268.01 81.7012C268.01 108.201 246.527 129.684 220.027 129.684C193.527 129.684 172.045 108.201 172.045 81.7012C172.045 55.2012 193.527 33.7188 220.027 33.7188C246.527 33.7188 268.01 55.2012 268.01 81.7012Z" fill="#FAFAFD"/>
<path opacity="0.2" d="M34.5815 73.0554C34.5815 81.4112 27.8077 88.185 19.4519 88.185C11.096 88.185 4.32227 81.4112 4.32227 73.0554C4.32227 64.6995 11.096 57.9258 19.4519 57.9258C27.8077 57.9258 34.5815 64.6995 34.5815 73.0554Z" fill="#FAFAFD"/>
<path opacity="0.6" d="M51.0085 133.573C51.0085 138.109 47.3313 141.786 42.7952 141.786C38.2592 141.786 34.582 138.109 34.582 133.573C34.582 129.037 38.2592 125.359 42.7952 125.359C47.3313 125.359 51.0085 129.037 51.0085 133.573Z" fill="#FAFAFD"/>
<path opacity="0.4" d="M134.005 22.0452C134.005 26.5813 130.327 30.2585 125.791 30.2585C121.255 30.2585 117.578 26.5813 117.578 22.0452C117.578 17.5092 121.255 13.832 125.791 13.832C130.327 13.832 134.005 17.5092 134.005 22.0452Z" fill="#FAFAFD"/>
<path opacity="0.4" d="M87.319 14.264C87.319 18.8 83.6418 22.4772 79.1058 22.4772C74.5698 22.4772 70.8926 18.8 70.8926 14.264C70.8926 9.72796 74.5698 6.05078 79.1058 6.05078C83.6418 6.05078 87.319 9.72796 87.319 14.264Z" fill="#5162B3"/>
<mask id="mask0_12461_25218" style="mask-type:alpha" maskUnits="userSpaceOnUse" x="34" y="0" width="217" height="250">
<path fill-rule="evenodd" clip-rule="evenodd" d="M250.727 0.859375H34.5898V141.78V152.155H35.0815C40.3033 206.972 86.4738 249.848 142.658 249.848C198.843 249.848 245.014 206.972 250.235 152.155H250.727V141.78V0.859375Z" fill="#C4C4C4"/>
</mask>
<g mask="url(#mask0_12461_25218)">
<path d="M109.756 221.968L95.0992 166.549L93.4023 160.151L94.9936 158.674L122.311 145.141L161.346 146.113L184.262 157.878L184.386 166.549L185.517 244.672L190.089 263.848H106.245L112.755 233.308L109.756 221.968Z" fill="#4154AF"/>
<path d="M206.172 263.85H184.322L178.289 220.29L179.868 166.551L180.086 159.24L184.257 157.879C187.401 160.175 189.999 163.136 191.868 166.551C194.549 171.217 196.776 177.903 196.222 186.893C196.222 186.893 196.717 197.509 196.245 204.578C195.922 209.409 201.559 239.943 206.172 263.85Z" fill="#4154AF"/>
<path d="M109.832 221.419L109.755 221.973L103.958 263.854H78.832C80.8468 240.124 83.215 210.456 82.8969 205.702C82.4257 198.638 82.9205 188.016 82.9205 188.016C82.3196 178.278 84.9885 171.256 87.9516 166.554C89.4424 164.165 91.2787 162.009 93.401 160.157C93.8717 159.743 94.3675 159.36 94.8856 159.008L99.0566 160.363L100.147 166.554L109.832 221.419Z" fill="#4154AF"/>
<path d="M226.215 259.534C226.215 261.079 225.602 262.56 224.509 263.652C223.417 264.744 221.936 265.358 220.392 265.358H64.6164C63.072 265.358 61.5907 264.744 60.4986 263.652C59.4065 262.56 58.793 261.079 58.793 259.534C58.793 257.99 59.4065 256.509 60.4986 255.417C61.5907 254.324 63.0719 253.711 64.6164 253.711H66.3454C66.2465 253.364 66.195 253.005 66.1924 252.645V173.116C66.1924 171.775 66.7252 170.488 67.6737 169.54C68.6222 168.591 69.9086 168.059 71.2499 168.059H213.758C215.1 168.059 216.386 168.591 217.334 169.54C218.283 170.488 218.816 171.775 218.816 173.116V252.645C218.816 253.005 218.765 253.365 218.663 253.711H220.392C221.156 253.711 221.914 253.861 222.62 254.154C223.327 254.447 223.969 254.876 224.509 255.417C225.05 255.957 225.479 256.599 225.772 257.306C226.065 258.012 226.215 258.77 226.215 259.534Z" fill="#3F3D56"/>
<path d="M145.523 215.988C151.771 215.988 156.836 210.923 156.836 204.676C156.836 198.428 151.771 193.363 145.523 193.363C139.276 193.363 134.211 198.428 134.211 204.676C134.211 210.923 139.276 215.988 145.523 215.988Z" fill="white"/>
<g clip-path="url(#clip0_12461_25218)">
<path d="M136.477 199.703H140.28L140.283 200.323H140.244C139.563 200.323 139.772 200.681 139.825 200.815L142.667 207.635L143.759 205.396L141.854 200.873C141.854 200.873 141.528 200.325 140.774 200.325L140.771 199.705H144.883V200.325C144.883 200.325 144.434 200.366 144.187 200.698L145.048 202.771L145.061 202.742L146.061 200.701C146.061 200.701 146.141 200.323 145.371 200.323V199.703H148.212V200.323C148.212 200.323 147.429 200.307 147.059 200.701L145.508 203.87L147.036 207.543L150.382 200.692C150.382 200.692 150.568 200.323 148.701 200.323V199.703H151.965L151.964 200.323C151.964 200.323 151.569 200.32 151.389 200.689C147.922 207.789 146.714 210.247 146.714 210.247H145.81L144.225 206.492L142.393 210.247H141.398L137.511 201.027C137.511 201.027 137.305 200.333 136.477 200.333V199.703Z" fill="#4154AF"/>
<path d="M151.236 205.554C151.62 205.422 151.785 204.887 151.603 204.358C151.421 203.829 150.963 203.508 150.579 203.64C150.194 203.772 150.03 204.307 150.212 204.836C150.393 205.365 150.852 205.686 151.236 205.554Z" fill="#F9AE08"/>
<path d="M150.001 207.648C149.952 207.696 149.869 207.673 149.852 207.606C149.847 207.585 149.85 207.563 149.86 207.543C150.088 207.1 150.574 206.378 151.527 205.704C151.544 205.687 152.915 204.982 152.997 206.838C153.013 207.253 152.997 210.336 152.997 210.533C152.997 210.539 152.994 210.544 152.988 210.547L150.603 211.503C150.593 211.507 150.581 211.498 150.583 211.486C150.583 211.485 150.583 211.484 150.584 211.483C150.727 211.14 151.914 208.224 151.495 206.913C151.51 206.929 151.354 206.348 150.001 207.648Z" fill="#4154AF"/>
</g>
<path d="M152.831 142.939C155.814 140.52 157.399 137.649 158.761 134.073C159.713 131.573 163.281 128.881 165.041 126.867C167.451 124.104 168.097 120.103 166.473 117.932C165.4 116.489 162.891 114.507 162.903 112.709C162.918 110.658 162.804 108.719 162.804 106.967C162.804 92.7924 153.19 84.2305 140.574 84.2305C127.951 84.2305 118.344 92.7924 118.344 106.967C118.344 110.083 118.097 113.778 118.836 117.652C118.344 115.815 114.802 116.141 113.45 117.959C111.832 120.136 112.471 124.137 114.882 126.893C117.296 129.654 119.279 130.135 120.902 127.965C120.905 127.961 120.903 127.959 120.908 127.958C121.005 127.942 121.249 128.193 121.27 128.289C122.717 134.913 123.853 139.15 127.718 142.766L135.224 148.584C135.982 149.171 136.913 149.49 137.872 149.49H143.074C144.05 149.49 144.998 149.159 145.763 148.552L152.831 142.939Z" fill="#FFB7B7"/>
<path d="M116.108 113.425C116.108 113.425 119.868 112.388 121.625 109.958C121.625 109.958 151.832 108.107 154.255 92.721C156.858 76.1565 136.339 79.279 130.533 80.8302C125.447 82.1884 108.532 88.2186 116.108 113.425Z" fill="#2F2E41"/>
<path d="M151.764 95.4801C151.764 95.4801 151.337 99.8876 159.54 109.954L162.609 113.802L164.333 114.635C164.333 114.635 174.26 91.4522 153.168 85.1406L151.764 95.4801Z" fill="#2F2E41"/>
<path d="M128.963 97.085C135.434 97.085 145.714 97.085 152.178 97.085C155.427 97.085 157.897 99.6682 158.23 102.897C159.482 114.908 160.62 115.574 160.62 115.574C160.62 115.574 164.589 112.797 162.398 114.462C163.137 110.587 163.383 110.088 163.383 106.972C163.383 92.7974 153.19 83.6562 140.574 83.6562C127.958 83.6562 117.758 92.7974 117.758 106.972C117.758 110.088 118.097 112.611 118.836 116.486C116.646 114.821 120.121 117.018 120.121 117.018C120.121 117.018 121.26 114.215 122.911 102.897C123.384 99.6815 125.714 97.085 128.963 97.085Z" fill="#2F2E41"/>
<path d="M161.972 114.888C162.711 111.013 163.384 110.088 163.384 106.972C163.384 92.7974 153.191 83.6562 140.574 83.6562" stroke="#2F2E41" stroke-width="1.29682" stroke-miterlimit="10" stroke-linecap="round" stroke-linejoin="round"/>
<path d="M160.689 115.477L165.808 115.483C167.693 115.483 167.513 118.299 167.513 119.891V125.643C167.513 127.234 166.055 128.046 164.171 128.046L159.816 128.133C159.816 128.133 160.649 122.614 160.689 115.477Z" fill="#707CC0"/>
<path d="M151.316 138.323C151.316 140.207 149.791 141.732 147.907 141.732C146.023 141.732 144.498 140.207 144.498 138.323C144.498 136.439 146.023 134.914 147.907 134.914C149.791 134.914 151.316 136.439 151.316 138.323Z" fill="#2F2E41"/>
<path d="M148.334 138.747H161.117C163.001 138.747 164.526 137.222 164.526 135.338V127.242" stroke="#2F2E41" stroke-width="1.29682" stroke-miterlimit="10"/>
<path d="M161.709 114.887H164.532C166.416 114.887 167.941 116.411 167.941 118.295V125.113C167.941 126.997 166.416 128.522 164.532 128.522H161.283" stroke="#2F2E41" stroke-width="1.29682" stroke-miterlimit="10" stroke-linecap="round" stroke-linejoin="round"/>
</g>
<path d="M102.587 52.4137C102.472 52.6396 102.353 52.8587 102.222 53.0675C101.436 54.3742 100.38 55.4813 99.1322 56.3084C97.884 57.1355 96.4748 57.6617 95.0072 57.8486C93.5395 58.0354 92.0504 57.8784 90.6483 57.3888C89.2461 56.8992 87.9663 56.0894 86.902 55.0185C85.8377 53.9475 85.0157 52.6423 84.4959 51.1979C83.9761 49.7535 83.7716 48.2063 83.8973 46.669C84.023 45.1317 84.4756 43.643 85.2224 42.3114C85.9691 40.9797 86.991 39.8386 88.2138 38.9712C88.5947 38.6981 88.9949 38.4556 89.4109 38.2457C91.2343 37.3072 93.2896 36.9748 95.2996 37.2934C97.3096 37.6119 99.1777 38.5661 100.652 40.0272C102.126 41.4882 103.135 43.3859 103.543 45.4643C103.952 47.5426 103.739 49.7016 102.935 51.6501C102.832 51.9077 102.715 52.1617 102.587 52.4137Z" fill="#475AB0"/>
<defs>
<clipPath id="clip0_12461_25218">
<rect width="18.0997" height="18.0997" fill="white" transform="translate(135.717 197.133)"/>
</clipPath>
</defs>
</svg>
