<svg width="269" height="260" viewBox="0 0 269 260" fill="none" xmlns="http://www.w3.org/2000/svg">
<circle opacity="0.3" cx="144.042" cy="142.306" r="108.468" fill="#B3BEE3"/>
<path opacity="0.1" d="M173.546 182.662C173.546 225.075 139.164 259.457 96.7508 259.457C54.3381 259.457 19.9557 225.075 19.9557 182.662C19.9557 140.249 54.3381 105.867 96.7508 105.867C139.164 105.867 173.546 140.249 173.546 182.662Z" fill="#5162B3"/>
<path opacity="0.2" d="M268.999 81.9978C268.999 108.596 247.437 130.158 220.839 130.158C194.241 130.158 172.679 108.596 172.679 81.9978C172.679 55.4 194.241 33.8382 220.839 33.8382C247.437 33.8382 268.999 55.4 268.999 81.9978Z" fill="#FAFAFD"/>
<path opacity="0.1" d="M20.8239 80.2646C20.8239 84.8174 17.1331 88.5081 12.5803 88.5081C8.02755 88.5081 4.33679 84.8174 4.33679 80.2646C4.33679 75.7118 8.02755 72.021 12.5803 72.021C17.1331 72.021 20.8239 75.7118 20.8239 80.2646Z" fill="#FAFAFD"/>
<path opacity="0.4" d="M87.644 14.3167C87.644 18.8695 83.9532 22.5602 79.4004 22.5602C74.8476 22.5602 71.1569 18.8695 71.1569 14.3167C71.1569 9.76388 74.8476 6.07312 79.4004 6.07312C83.9532 6.07312 87.644 9.76388 87.644 14.3167Z" fill="white"/>
<mask id="mask0_437_3191" style="mask-type:alpha" maskUnits="userSpaceOnUse" x="34" y="0" width="219" height="252">
<path fill-rule="evenodd" clip-rule="evenodd" d="M252.398 0.866241H34.7089V142.802V153.248H35.2036C40.4608 208.461 86.9637 251.647 143.553 251.647C200.143 251.647 246.646 208.461 251.903 153.248H252.398V142.802V0.866241Z" fill="#C4C4C4"/>
</mask>
<g mask="url(#mask0_437_3191)">
<g clip-path="url(#clip0_437_3191)">
<path d="M222.189 258.558C224.465 258.558 226.311 256.711 226.311 254.433C226.311 252.156 224.465 250.309 222.189 250.309C219.912 250.309 218.067 252.156 218.067 254.433C218.067 256.711 219.912 258.558 222.189 258.558Z" fill="#7784C8"/>
<path d="M37.3855 197.036H-27.193C-30.1983 197.032 -33.0796 195.836 -35.2047 193.71C-37.3298 191.583 -38.5252 188.7 -38.5286 185.693V141.698C-38.5252 138.69 -37.3298 135.807 -35.2047 133.681C-33.0796 131.555 -30.1983 130.358 -27.193 130.355H37.3855C40.3908 130.358 43.2721 131.555 45.3973 133.681C47.5224 135.807 48.7177 138.69 48.7211 141.698V185.693C48.7177 188.7 47.5223 191.583 45.3972 193.71C43.2721 195.836 40.3908 197.032 37.3855 197.036V197.036Z" fill="#42589D"/>
<path d="M124.287 197.381H59.7084C56.7031 197.378 53.8218 196.182 51.6967 194.055C49.5716 191.929 48.3762 189.046 48.3728 186.039V142.043C48.3762 139.036 49.5716 136.153 51.6967 134.027C53.8218 131.9 56.7031 130.704 59.7084 130.701H124.287C127.292 130.704 130.173 131.9 132.299 134.027C134.424 136.153 135.619 139.036 135.622 142.043V186.039C135.619 189.046 134.424 191.929 132.299 194.055C130.173 196.182 127.292 197.378 124.287 197.381V197.381Z" fill="#42589D"/>
<path d="M211.204 197.727H146.625C143.62 197.723 140.739 196.527 138.614 194.401C136.489 192.275 135.293 189.391 135.29 186.384V142.389C135.293 139.382 136.489 136.499 138.614 134.372C140.739 132.246 143.62 131.05 146.625 131.046H211.204C214.209 131.05 217.091 132.246 219.216 134.372C221.341 136.499 222.536 139.382 222.539 142.389V186.384C222.536 189.392 221.341 192.275 219.216 194.401C217.09 196.527 214.209 197.723 211.204 197.727V197.727Z" fill="#42589D"/>
<path d="M235.929 194.622H-48.4906V254.084H235.929V194.622Z" fill="#42589D"/>
<path d="M234.557 254.435H222.191V169.881H245.893V239.902C245.893 247.916 240.808 254.435 234.557 254.435Z" fill="#42589D"/>
<path d="M49.059 207.003H-38.1907V188.443C-9.10735 171.75 19.9759 171.75 49.059 188.443V207.003Z" fill="#7784C8"/>
<path d="M135.968 207.341H48.7185V188.781C77.8018 172.088 106.885 172.088 135.968 188.781V207.341Z" fill="#7784C8"/>
<path d="M222.877 207.687H135.628V189.126C164.711 172.433 193.794 172.433 222.877 189.126V207.687Z" fill="#7784C8"/>
<path d="M241.774 194.624C252.967 194.624 262.041 185.545 262.041 174.345C262.041 163.145 252.967 154.066 241.774 154.066C230.581 154.066 221.508 163.145 221.508 174.345C221.508 185.545 230.581 194.624 241.774 194.624Z" fill="#7784C8"/>
<path d="M182.066 134.624C182.113 134.95 182.135 135.279 182.13 135.609L206.423 152.362L212.901 149.293L218.807 158.471L207.867 165.019C206.983 165.548 205.951 165.776 204.927 165.668C203.903 165.561 202.941 165.124 202.186 164.423L177.583 141.574C176.363 141.918 175.066 141.881 173.866 141.47C172.667 141.059 171.621 140.291 170.868 139.271C170.114 138.25 169.69 137.024 169.65 135.755C169.61 134.487 169.957 133.237 170.645 132.17C171.332 131.104 172.328 130.273 173.499 129.787C174.671 129.301 175.962 129.183 177.202 129.449C178.442 129.716 179.572 130.353 180.441 131.278C181.309 132.202 181.876 133.369 182.066 134.624V134.624Z" fill="#FFB8B8"/>
<path d="M206.891 150.91C206.997 150.54 207.183 150.197 207.434 149.906C207.685 149.614 207.996 149.38 208.346 149.22L220.561 143.62C222.211 142.545 224.219 142.169 226.145 142.574C228.071 142.978 229.759 144.131 230.837 145.778C231.916 147.426 232.297 149.434 231.898 151.362C231.499 153.291 230.353 154.982 228.709 156.066L218.611 165.001C218.322 165.256 217.983 165.446 217.615 165.558C217.246 165.669 216.859 165.701 216.477 165.649C216.096 165.597 215.731 165.464 215.405 165.258C215.08 165.052 214.804 164.778 214.594 164.456L207.218 153.116C207.008 152.794 206.87 152.43 206.814 152.049C206.757 151.668 206.783 151.279 206.891 150.91Z" fill="#4154AF"/>
<path d="M181.759 135.705L181.637 135.714L181.304 131.104C181.197 129.63 180.244 128.498 179.176 128.575L172.092 129.088C171.024 129.166 169.057 130.509 169.164 131.983L169.249 133.17L170.993 157.277C171.099 158.751 173.239 159.797 174.307 159.719L181.391 159.206C182.459 159.129 183.239 157.872 183.133 156.398L181.874 138.996L181.996 138.987L181.759 135.705Z" fill="#3F3D56"/>
<path d="M180.903 131.154L182.729 156.411C182.809 157.511 182.226 158.451 181.428 158.508L174.311 159.024C173.513 159.081 172.801 158.236 172.722 157.135L170.895 131.879C170.816 130.778 171.398 129.839 172.196 129.781L173.06 129.719C173 129.943 173.013 130.181 173.097 130.398C173.181 130.615 173.331 130.8 173.526 130.926C173.608 130.965 173.699 130.983 173.79 130.977L177.848 130.683C178.227 130.655 178.504 130.209 178.466 129.685C178.457 129.565 178.431 129.446 178.389 129.333L179.314 129.266C180.112 129.208 180.823 130.053 180.903 131.154Z" fill="#F5F5F5"/>
<path d="M81.0467 189.477L78.6991 182.568L104.218 170.219L107.682 180.418L81.0467 189.477Z" fill="#FFB8B8"/>
<path d="M74.9549 193.514L67.3856 171.235L67.6672 171.139C68.8053 170.752 70.0085 170.593 71.2081 170.671C72.4076 170.749 73.58 171.062 74.6584 171.594C75.7367 172.125 76.6999 172.864 77.4929 173.768C78.2859 174.672 78.8932 175.724 79.2801 176.862L79.2803 176.863L83.9033 190.471L74.9549 193.514Z" fill="#2F2E41"/>
<path d="M182.328 194.411C176.854 194.719 171.397 193.576 166.507 191.097L136.5 170.671L101.462 183.653C100.532 183.97 99.5168 183.922 98.6209 183.518C97.7251 183.115 97.0156 182.386 96.6358 181.479L94.9185 177.346C94.5269 176.417 94.5157 175.37 94.8872 174.432C95.2587 173.494 95.9833 172.74 96.9051 172.331L130.379 157.289C134.398 155.49 138.907 155.1 143.175 156.182L189.645 168.031L201.929 182.628L201.792 182.816C195.762 191.141 188.61 193.956 182.328 194.411Z" fill="#2F2E41"/>
<path d="M220.281 133.419C228.351 133.419 234.893 126.873 234.893 118.798C234.893 110.723 228.351 104.177 220.281 104.177C212.211 104.177 205.669 110.723 205.669 118.798C205.669 126.873 212.211 133.419 220.281 133.419Z" fill="#FFB8B8"/>
<path d="M205.275 188.587L182.499 171.626L198.051 160.566L198.307 160.384L198.214 160.084C197.998 159.388 197.395 156.998 198.19 154.092C198.98 151.205 201.166 147.747 206.635 144.918C210.163 143.093 212.739 141.505 214.262 140.2L214.263 140.199C216.287 138.452 218.879 137.506 221.551 137.539C223.235 137.565 224.89 137.984 226.384 138.761C227.879 139.539 229.172 140.653 230.162 142.017C231.151 143.381 231.81 144.957 232.086 146.62C232.362 148.282 232.247 149.987 231.751 151.597L231.751 151.598C230.593 155.363 229.094 159.734 227.335 163.755C225.572 167.785 223.563 171.427 221.398 173.764C216.424 179.125 211.033 184.081 205.275 188.587Z" fill="#4154AF" stroke="#334E96" stroke-width="0.867742"/>
<path d="M84.7785 195.598L82.4309 188.687L107.949 176.339L111.414 186.537L84.7785 195.598Z" fill="#FFB8B8"/>
<path d="M78.6868 199.635L71.1176 177.355L71.3992 177.259C72.5373 176.872 73.7405 176.713 74.94 176.791C76.1395 176.869 77.3119 177.183 78.3903 177.714C79.4687 178.246 80.4319 178.985 81.2248 179.888C82.0178 180.792 82.6252 181.844 83.0121 182.983L83.0123 182.983L87.6352 196.591L78.6868 199.635Z" fill="#2F2E41"/>
<path d="M186.059 200.532C180.586 200.839 175.129 199.696 170.239 197.217L140.232 176.791L105.194 189.774C104.264 190.09 103.249 190.042 102.353 189.638C101.457 189.235 100.748 188.506 100.368 187.6L98.6505 183.467C98.2588 182.537 98.2476 181.491 98.6191 180.553C98.9906 179.615 99.7153 178.86 100.637 178.452L134.111 163.41C138.13 161.61 142.639 161.22 146.907 162.302L193.377 174.152L205.661 188.748L205.524 188.936C199.494 197.261 192.342 200.077 186.059 200.532Z" fill="#2F2E41"/>
<path d="M179.312 152.158C179.494 152.432 179.654 152.721 179.791 153.02L208.913 157.753L213.454 152.205L222.719 157.968L215.633 168.573C215.061 169.43 214.226 170.077 213.254 170.419C212.283 170.761 211.227 170.778 210.244 170.467L178.234 160.359C177.278 161.193 176.091 161.716 174.831 161.858C173.571 162 172.297 161.754 171.18 161.155C170.062 160.555 169.154 159.629 168.575 158.5C167.996 157.37 167.775 156.092 167.94 154.834C168.105 153.576 168.649 152.398 169.5 151.457C170.351 150.515 171.468 149.856 172.702 149.565C173.937 149.275 175.23 149.367 176.411 149.83C177.592 150.294 178.603 151.105 179.312 152.158V152.158Z" fill="#FFB8B8"/>
<path d="M209.149 156.181L209.149 156.181C209.097 155.862 209.115 155.536 209.2 155.225C209.286 154.914 209.438 154.626 209.645 154.379L209.645 154.379L218.288 144.084L218.308 144.06L218.325 144.032C219.296 142.453 220.853 141.322 222.655 140.889C224.457 140.457 226.358 140.757 227.939 141.723C229.521 142.69 230.655 144.245 231.092 146.048C231.53 147.85 231.235 149.752 230.273 151.338L230.257 151.364L230.245 151.392L224.943 163.793C224.816 164.09 224.626 164.355 224.388 164.572C224.149 164.789 223.866 164.952 223.559 165.049C223.252 165.147 222.927 165.177 222.607 165.138C222.288 165.099 221.98 164.991 221.705 164.822L210.188 157.734L210.188 157.734C209.913 157.565 209.678 157.339 209.499 157.071C209.319 156.803 209.2 156.5 209.149 156.181Z" fill="#4154AF" stroke="#334E96" stroke-width="0.867742"/>
<path d="M216.382 134.902C220.628 129.436 222.982 122.737 223.09 115.815C221.092 117.301 218.83 118.394 216.424 119.037C213.871 119.717 211.064 119.854 208.659 118.758C205.275 117.216 203.273 113.281 203.657 109.58C204.041 105.879 206.598 102.573 209.926 100.913C213.333 99.3186 217.219 99.0832 220.794 100.255C222.685 98.6432 225 97.6113 227.462 97.2826C229.924 96.9538 232.428 97.3421 234.676 98.4009C239.848 100.941 242.708 106.823 243.204 112.567C243.7 118.31 242.225 124.021 240.763 129.597L240.598 130.227C240.143 131.963 238.82 135.294 238.82 135.294C238.82 135.294 231.136 133.777 228.083 132.804C223.658 134.404 216.382 134.902 216.382 134.902Z" fill="#2F2E41"/>
<path d="M179.751 136.297L173.49 136.751C173.333 136.762 173.177 136.71 173.058 136.607C172.938 136.504 172.865 136.357 172.854 136.2C172.842 136.042 172.894 135.887 172.997 135.767C173.1 135.648 173.247 135.575 173.404 135.563L179.665 135.11C179.743 135.104 179.821 135.114 179.896 135.138C179.97 135.163 180.039 135.202 180.098 135.253C180.157 135.304 180.206 135.366 180.241 135.436C180.276 135.506 180.297 135.582 180.302 135.661C180.308 135.739 180.298 135.817 180.274 135.891C180.249 135.966 180.21 136.034 180.159 136.093C180.107 136.153 180.045 136.201 179.975 136.236C179.905 136.271 179.829 136.292 179.751 136.297Z" fill="#3F3D56"/>
<path d="M179.964 139.267L173.703 139.72C173.625 139.726 173.547 139.717 173.473 139.692C173.398 139.667 173.33 139.628 173.27 139.577C173.211 139.526 173.163 139.464 173.127 139.394C173.092 139.324 173.071 139.248 173.066 139.17C173.06 139.092 173.07 139.013 173.095 138.939C173.119 138.865 173.158 138.796 173.21 138.737C173.261 138.678 173.323 138.629 173.393 138.594C173.463 138.559 173.539 138.538 173.617 138.533L179.878 138.08C180.036 138.068 180.191 138.12 180.31 138.223C180.43 138.326 180.503 138.473 180.515 138.63C180.526 138.788 180.474 138.943 180.371 139.063C180.268 139.182 180.122 139.256 179.964 139.267V139.267Z" fill="#3F3D56"/>
<path d="M180.174 142.237L173.913 142.69C173.756 142.701 173.601 142.649 173.482 142.546C173.363 142.443 173.289 142.296 173.278 142.139C173.267 141.982 173.318 141.827 173.421 141.707C173.524 141.588 173.67 141.514 173.827 141.503L180.088 141.049C180.245 141.038 180.401 141.09 180.52 141.193C180.639 141.296 180.713 141.443 180.724 141.6C180.736 141.758 180.684 141.913 180.581 142.033C180.478 142.152 180.331 142.225 180.174 142.237V142.237Z" fill="#3F3D56"/>
<path opacity="0.2" d="M185.35 21.3367C185.35 25.9053 181.647 29.6089 177.078 29.6089C172.509 29.6089 168.806 25.9053 168.806 21.3367C168.806 16.7681 172.509 13.0645 177.078 13.0645C181.647 13.0645 185.35 16.7681 185.35 21.3367Z" fill="#FAFAFD"/>
<path d="M72.0207 71.1596C72.0207 71.3734 72.0145 71.5841 71.9959 71.7918C71.9021 73.0787 71.5223 74.3285 70.8844 75.4502C70.2464 76.5719 69.3663 77.5371 68.3082 78.2756C67.25 79.0141 66.0404 79.5073 64.7676 79.7193C63.4947 79.9312 62.1906 79.8566 60.9502 79.5008C59.7098 79.1451 58.5644 78.5171 57.5974 77.6627C56.6304 76.8083 55.8662 75.749 55.3603 74.5619C54.8545 73.3748 54.6198 72.0898 54.6734 70.8005C54.7269 69.5113 55.0674 68.2502 55.67 67.1091C55.8566 66.7515 56.07 66.4086 56.3084 66.0833C57.3461 64.6441 58.8003 63.5577 60.4747 62.9707C62.1492 62.3837 63.9634 62.3243 65.6727 62.8006C67.3819 63.2769 68.904 64.2659 70.0335 65.6343C71.1631 67.0026 71.8459 68.6845 71.9897 70.453C72.0114 70.6854 72.0207 70.9209 72.0207 71.1596Z" fill="#475AB0"/>
</g>
</g>
<defs>
<clipPath id="clip0_437_3191">
<rect width="538.997" height="303.893" fill="white" transform="translate(-176.883 -44.4072)"/>
</clipPath>
</defs>
</svg>
