<svg width="272" height="263" viewBox="0 0 272 263" fill="none" xmlns="http://www.w3.org/2000/svg">
<path opacity="0.1" d="M174.968 185.15C174.968 227.909 140.305 262.572 97.5462 262.572C54.7872 262.572 20.1243 227.909 20.1243 185.15C20.1243 142.391 54.7872 107.728 97.5462 107.728C140.305 107.728 174.968 142.391 174.968 185.15Z" fill="#5162B3"/>
<path opacity="0.2" d="M271.199 83.6731C271.199 110.488 249.461 132.226 222.646 132.226C195.831 132.226 174.094 110.488 174.094 83.6731C174.094 56.8582 195.831 35.1204 222.646 35.1204C249.461 35.1204 271.199 56.8582 271.199 83.6731Z" fill="#5162B3"/>
<path d="M69.9859 35.991C69.9859 55.3171 54.319 70.9839 34.9929 70.9839C15.6669 70.9839 0 55.3171 0 35.991C0 16.6649 15.6669 0.998047 34.9929 0.998047C54.319 0.998047 69.9859 16.6649 69.9859 35.991Z" fill="#5162B3"/>
<path opacity="0.2" d="M21.0025 81.9169C21.0025 86.5068 17.2816 90.2277 12.6917 90.2277C8.10174 90.2277 4.38086 86.5068 4.38086 81.9169C4.38086 77.327 8.10174 73.6061 12.6917 73.6061C17.2816 73.6061 21.0025 77.327 21.0025 81.9169Z" fill="#5162B3"/>
<path opacity="0.4" d="M88.357 15.4352C88.357 20.0252 84.6361 23.746 80.0462 23.746C75.4562 23.746 71.7354 20.0252 71.7354 15.4352C71.7354 10.8453 75.4562 7.12439 80.0462 7.12439C84.6361 7.12439 88.357 10.8453 88.357 15.4352Z" fill="#5162B3"/>
<mask id="mask0_437_3010" style="mask-type:alpha" maskUnits="userSpaceOnUse" x="35" y="1" width="219" height="253">
<path fill-rule="evenodd" clip-rule="evenodd" d="M253.706 1.87256H35.0005V144.466V154.967H35.4981C40.7824 210.435 87.5014 253.819 144.353 253.819C201.205 253.819 247.924 210.435 253.209 154.967H253.706V144.466V1.87256Z" fill="#C4C4C4"/>
</mask>
<g mask="url(#mask0_437_3010)">
<path d="M190.008 301.269H102.026C98.8195 301.269 95.6447 300.637 92.6826 299.41C89.7206 298.183 87.0292 296.385 84.7621 294.118C82.495 291.851 80.6967 289.159 79.4697 286.197C78.2428 283.235 77.6113 280.06 77.6113 276.854V49.0295C77.6187 42.5567 80.1932 36.3511 84.7702 31.7741C89.3472 27.1971 95.5528 24.6226 102.026 24.6152H190.008C196.481 24.6225 202.686 27.1971 207.263 31.7741C211.84 36.351 214.415 42.5567 214.422 49.0295V90.1783H215.938V120.497H214.422V276.854C214.422 283.329 211.85 289.539 207.271 294.118C202.693 298.696 196.483 301.269 190.008 301.269Z" fill="#3F3D56"/>
<path d="M190.981 295.01H102.577C97.7173 295.005 93.0585 293.072 89.6223 289.636C86.1861 286.2 84.2532 281.541 84.2476 276.681V49.1916C84.2532 44.3321 86.1861 39.6733 89.6223 36.2371C93.0584 32.801 97.7173 30.8681 102.577 30.8624H113.865L113.652 31.3844C113.149 32.6219 112.957 33.9641 113.094 35.293C113.231 36.6219 113.692 37.8969 114.438 39.0056C115.183 40.1144 116.189 41.0231 117.368 41.6517C118.547 42.2803 119.862 42.6096 121.198 42.6106H171.602C172.938 42.6095 174.253 42.2802 175.432 41.6516C176.611 41.023 177.617 40.1143 178.362 39.0055C179.107 37.8968 179.569 36.6219 179.706 35.2929C179.843 33.964 179.651 32.6218 179.147 31.3844L178.935 30.8624H190.981C195.841 30.8681 200.499 32.801 203.936 36.2372C207.372 39.6733 209.305 44.3321 209.31 49.1916V276.681C209.305 281.541 207.372 286.2 203.936 289.636C200.499 293.072 195.841 295.005 190.981 295.01Z" fill="#FEFEFE"/>
<path d="M185.857 92.7071H178.518C178.242 92.7074 177.969 92.6535 177.715 92.5483C177.46 92.443 177.228 92.2887 177.033 92.0939C176.838 91.8992 176.684 91.6679 176.578 91.4133C176.473 91.1587 176.418 90.8858 176.418 90.6102C176.418 90.3346 176.473 90.0618 176.578 89.8072C176.684 89.5526 176.838 89.3213 177.033 89.1266C177.228 88.9318 177.46 88.7774 177.715 88.6722C177.969 88.567 178.242 88.5131 178.518 88.5134H185.857C186.412 88.5142 186.945 88.7354 187.338 89.1286C187.73 89.5217 187.951 90.0546 187.951 90.6102C187.951 91.1659 187.73 91.6988 187.338 92.0919C186.945 92.4851 186.412 92.7063 185.857 92.7071Z" fill="white"/>
<path d="M185.854 216.287H178.515C177.959 216.287 177.426 216.066 177.032 215.673C176.639 215.28 176.418 214.746 176.418 214.19C176.418 213.634 176.639 213.101 177.032 212.707C177.426 212.314 177.959 212.093 178.515 212.093H185.854C186.41 212.094 186.942 212.315 187.335 212.708C187.727 213.102 187.948 213.634 187.948 214.19C187.948 214.746 187.727 215.279 187.335 215.672C186.942 216.065 186.41 216.286 185.854 216.287Z" fill="white"/>
<path d="M185.86 257.434H129.77C129.214 257.433 128.682 257.212 128.289 256.819C127.896 256.426 127.676 255.893 127.676 255.337C127.676 254.782 127.896 254.249 128.289 253.856C128.682 253.462 129.214 253.241 129.77 253.24H185.86C186.416 253.24 186.949 253.461 187.342 253.855C187.735 254.248 187.956 254.781 187.956 255.337C187.956 255.893 187.735 256.427 187.342 256.82C186.949 257.213 186.416 257.434 185.86 257.434Z" fill="#E6E6E6"/>
<path d="M104.193 241.853L97.1297 240.971C97.1297 240.971 95.3639 241.854 94.481 248.034C93.5981 254.214 83.0032 308.955 83.0032 308.955L97.1297 376.056L113.022 354.866L103.31 317.784L113.022 280.702L104.193 241.853Z" fill="#2F2E41"/>
<path d="M194.254 240.971H199.551L212.795 312.486L200.435 368.11L188.074 347.802L191.605 325.73L189.84 306.306L183.659 294.827L194.254 240.971Z" fill="#2F2E41"/>
<g clip-path="url(#clip0_437_3010)">
<path d="M111.912 104.963C120.574 104.963 127.595 97.9438 127.595 89.2846C127.595 80.6254 120.574 73.6057 111.912 73.6057C103.251 73.6057 96.2297 80.6254 96.2297 89.2846C96.2297 97.9438 103.251 104.963 111.912 104.963Z" fill="#F2F2F2"/>
<path d="M107.612 83.3989C108.834 83.3989 109.826 82.4078 109.826 81.1853C109.826 79.9627 108.834 78.9717 107.612 78.9717C106.389 78.9717 105.397 79.9627 105.397 81.1853C105.397 82.4078 106.389 83.3989 107.612 83.3989Z" fill="#2F2E41"/>
<path d="M111.145 91.8116C114.243 91.8116 116.754 89.3009 116.754 86.2038C116.754 83.1068 114.243 80.5961 111.145 80.5961C108.047 80.5961 105.536 83.1068 105.536 86.2038C105.536 89.3009 108.047 91.8116 111.145 91.8116Z" fill="#2F2E41"/>
<path d="M111.614 91.8097C114.132 91.8097 116.173 89.7695 116.173 87.2527C116.173 84.736 114.132 82.6958 111.614 82.6958C109.097 82.6958 107.056 84.736 107.056 87.2527C107.056 89.7695 109.097 91.8097 111.614 91.8097Z" fill="#9E616A"/>
<path d="M114.71 82.6119C113.911 82.1251 112.997 81.8618 112.061 81.8495C111.126 81.8371 110.204 82.0763 109.393 82.5418C108.582 83.0074 107.911 83.6824 107.449 84.4961C106.988 85.3098 106.754 86.2324 106.772 87.1675C109.095 87.7505 111.535 88.1966 114.012 87.3069L114.597 85.8757L114.941 87.308C115.696 87.6162 116.452 87.877 117.208 87.305C117.239 86.3726 117.025 85.4484 116.586 84.6249C116.148 83.8013 115.501 83.1072 114.71 82.6119Z" fill="#2F2E41"/>
<path d="M105.548 75.1789C104.771 74.8472 103.916 74.7396 103.081 74.8682C102.245 74.9969 101.463 75.3567 100.821 75.9069C100.194 76.4728 99.7162 77.1851 99.4309 77.9803C99.1457 78.7755 99.0617 79.6289 99.1863 80.4644C99.4374 82.1638 100.471 83.6273 101.423 85.057C102.376 86.4867 103.306 88.0534 103.305 89.7712C103.305 91.0085 102.813 92.195 101.939 93.0705C101.064 93.946 99.878 94.439 98.6404 94.4415C100.093 95.0667 101.609 95.7041 103.189 95.63C104.768 95.5559 106.424 94.5406 106.682 92.9807C106.867 91.8568 106.316 90.7608 105.856 89.7185C105.106 88.0203 104.565 86.2379 104.243 84.4099C104.034 83.5448 104.044 82.6412 104.273 81.7813C104.5 81.1596 104.92 80.6271 105.473 80.2624C106.025 79.8977 106.68 79.7201 107.341 79.7557L107.863 79.2862C107.952 78.446 107.777 77.5988 107.362 76.8626C106.947 76.1264 106.313 75.5379 105.548 75.1789Z" fill="#2F2E41"/>
<path d="M123.718 99.7743C121.001 102.865 117.178 104.764 113.072 105.06C108.967 105.357 104.91 104.028 101.777 101.36L103.122 97.6071C103.426 96.9406 103.906 96.3694 104.51 95.9548C105.114 95.5401 105.819 95.2976 106.551 95.2533L107.406 95.2008L109.447 93.4414C109.447 93.4414 114.945 93.2451 114.864 93.1511L118.194 95.1538L118.191 95.14L119.5 95.2202C120.232 95.2643 120.937 95.5067 121.541 95.9214C122.145 96.336 122.625 96.9073 122.929 97.5739L123.718 99.7743Z" fill="#4154AF"/>
<path d="M127.595 151.759C127.59 154.86 126.664 157.89 124.937 160.465C123.209 163.04 120.756 165.046 117.888 166.227C115.021 167.409 111.867 167.714 108.826 167.103C105.785 166.493 102.993 164.995 100.803 162.798C98.6141 160.602 97.1254 157.805 96.5257 154.763C95.926 151.72 96.2421 148.568 97.4342 145.706C98.6263 142.843 100.641 140.398 103.223 138.679C105.805 136.961 108.839 136.047 111.94 136.052C114.001 136.051 116.042 136.456 117.946 137.246C119.85 138.035 121.579 139.193 123.033 140.652C124.488 142.112 125.64 143.845 126.423 145.751C127.206 147.657 127.604 149.699 127.595 151.759Z" fill="#F2F2F2"/>
<path d="M104.642 146.625C105.291 144.559 106.765 142.664 108.805 141.966C110.844 141.267 113.831 142.331 115.364 143.859C118.169 146.653 118.853 156.253 116.926 159.287C116.543 159.267 115.22 159.252 114.832 159.237L114.284 157.409V159.219C113.666 159.2 113.043 159.187 112.415 159.18C110.311 159.154 108.298 158.313 106.801 156.834C105.304 155.355 104.438 153.354 104.387 151.25C104.336 149.238 104.387 147.439 104.642 146.625Z" fill="#2F2E41"/>
<path d="M111.681 153.483C114.15 153.483 116.151 151.482 116.151 149.015C116.151 146.547 114.15 144.546 111.681 144.546C109.213 144.546 107.212 146.547 107.212 149.015C107.212 151.482 109.213 153.483 111.681 153.483Z" fill="#FFB6B6"/>
<path d="M107.825 145.083L112.972 142.507C114.024 142.981 114.93 143.728 115.596 144.67C116.262 145.612 116.664 146.715 116.76 147.865L116.888 149.401L114.733 148.852L114.497 146.888L114.131 148.699L113.137 148.446L113.146 145.397L112.151 148.444L108.599 147.628L107.825 145.083Z" fill="#2F2E41"/>
<path d="M123.554 162.1C120.837 165.191 117.013 167.089 112.908 167.386C108.803 167.682 104.746 166.353 101.613 163.685L102.958 159.933C103.262 159.266 103.742 158.695 104.346 158.28C104.95 157.866 105.655 157.623 106.386 157.579L107.242 157.526L109.283 155.767C109.283 155.767 114.781 155.571 114.699 155.477L118.03 157.479L118.027 157.466L119.336 157.546C120.067 157.59 120.773 157.832 121.377 158.247C121.981 158.662 122.461 159.233 122.765 159.9L123.554 162.1Z" fill="#4154AF"/>
<path d="M111.912 229.736C120.574 229.736 127.595 222.716 127.595 214.057C127.595 205.398 120.574 198.378 111.912 198.378C103.251 198.378 96.2297 205.398 96.2297 214.057C96.2297 222.716 103.251 229.736 111.912 229.736Z" fill="#F2F2F2"/>
<path d="M111.484 216C114.248 216 116.49 213.759 116.49 210.995C116.49 208.231 114.248 205.99 111.484 205.99C108.719 205.99 106.478 208.231 106.478 210.995C106.478 213.759 108.719 216 111.484 216Z" fill="#FFB6B6"/>
<path d="M123.684 224.546C120.967 227.637 117.143 229.536 113.038 229.832C108.933 230.129 104.876 228.8 101.742 226.132L103.088 222.379C103.392 221.713 103.871 221.142 104.475 220.727C105.079 220.312 105.785 220.07 106.516 220.025L107.372 219.973L109.412 218.213C109.412 218.213 114.91 218.017 114.829 217.923L118.159 219.926L118.156 219.912L119.466 219.992C120.197 220.036 120.903 220.279 121.507 220.693C122.111 221.108 122.59 221.679 122.894 222.346L123.684 224.546Z" fill="#4154AF"/>
<path d="M116.758 207.886C116.335 206.372 115.374 205.065 114.055 204.209C113.004 203.537 111.692 203.194 110.502 203.549C109.311 203.905 108.325 205.073 108.403 206.335C108.183 206.277 107.95 206.282 107.732 206.349C107.514 206.417 107.32 206.544 107.17 206.716C106.871 207.068 106.664 207.489 106.565 207.94C106.183 209.355 106.208 210.85 106.638 212.251L106.615 212.452C106.902 212.376 107.168 212.235 107.393 212.04C107.617 211.845 107.794 211.601 107.91 211.327C108.184 210.796 108.342 210.207 108.639 209.689C108.767 209.421 108.96 209.19 109.201 209.016C109.442 208.842 109.722 208.731 110.017 208.693L109.965 209.592C110.471 209.331 110.978 209.071 111.484 208.81L111.122 209.674L112.449 209.12C112.399 209.397 112.35 209.673 112.3 209.95C112.416 209.71 112.58 209.496 112.781 209.32C112.982 209.145 113.217 209.012 113.47 208.93C113.724 208.848 113.992 208.818 114.258 208.843C114.524 208.867 114.782 208.945 115.017 209.072C115.545 209.428 115.926 209.964 116.088 210.58C116.249 211.194 116.335 211.826 116.345 212.461C117.028 211.035 117.175 209.411 116.758 207.886Z" fill="#2F2E41"/>
<path d="M132.062 116.074H97.5755C97.3989 116.075 97.224 116.04 97.0607 115.973C96.8974 115.905 96.7491 115.807 96.6241 115.682C96.4991 115.557 96.3999 115.409 96.3322 115.246C96.2646 115.083 96.2297 114.908 96.2297 114.731C96.2297 114.555 96.2646 114.38 96.3322 114.217C96.3999 114.053 96.4991 113.905 96.6241 113.781C96.7491 113.656 96.8974 113.557 97.0607 113.489C97.224 113.422 97.3989 113.388 97.5755 113.388H132.062C133.795 113.364 133.813 116.099 132.062 116.074Z" fill="#E4E4E4"/>
<path d="M178.518 123.108H97.5734C97.217 123.108 96.8753 122.967 96.6233 122.715C96.3713 122.463 96.2297 122.121 96.2297 121.765C96.2297 121.408 96.3713 121.067 96.6233 120.815C96.8753 120.563 97.217 120.421 97.5734 120.421H178.518C180.251 120.397 180.268 123.132 178.518 123.108Z" fill="#E4E4E4"/>
<path d="M146.861 96.1295C151.631 96.1295 155.498 92.2634 155.498 87.4944C155.498 82.7253 151.631 78.8593 146.861 78.8593C142.091 78.8593 138.224 82.7253 138.224 87.4944C138.224 92.2634 142.091 96.1295 146.861 96.1295Z" fill="#4154AF"/>
<path d="M145.68 91.9872C145.53 91.9872 145.383 91.9525 145.25 91.8858C145.117 91.8191 145.001 91.7222 144.911 91.6029L142.555 88.4618C142.402 88.258 142.336 88.0018 142.372 87.7496C142.408 87.4975 142.543 87.2699 142.747 87.1171C142.951 86.9642 143.207 86.8986 143.459 86.9347C143.711 86.9707 143.939 87.1054 144.092 87.3092L145.634 89.3641L149.593 83.4264C149.663 83.3214 149.753 83.2311 149.858 83.1609C149.963 83.0906 150.08 83.0417 150.204 83.0169C150.328 82.9921 150.455 82.9919 150.579 83.0164C150.703 83.0409 150.821 83.0895 150.926 83.1595C151.031 83.2295 151.121 83.3195 151.191 83.4244C151.261 83.5292 151.31 83.6469 151.335 83.7706C151.36 83.8944 151.36 84.0218 151.335 84.1456C151.311 84.2694 151.262 84.3871 151.192 84.4921L146.479 91.5594C146.394 91.6873 146.279 91.7928 146.145 91.8671C146.01 91.9415 145.86 91.9826 145.706 91.9869C145.697 91.9871 145.689 91.9872 145.68 91.9872Z" fill="white"/>
<path d="M132.06 178.461H97.5734C97.217 178.461 96.8753 178.319 96.6233 178.067C96.3713 177.815 96.2297 177.474 96.2297 177.117C96.2297 176.761 96.3713 176.419 96.6233 176.167C96.8753 175.915 97.217 175.774 97.5734 175.774H132.06C133.793 175.75 133.81 178.485 132.06 178.461Z" fill="#E4E4E4"/>
<path d="M178.52 185.494H97.5755C97.3989 185.494 97.224 185.46 97.0607 185.393C96.8974 185.325 96.7491 185.226 96.6241 185.101C96.4991 184.977 96.3999 184.829 96.3322 184.665C96.2646 184.502 96.2297 184.327 96.2297 184.151C96.2297 183.974 96.2646 183.799 96.3322 183.636C96.3999 183.473 96.4991 183.325 96.6241 183.2C96.7491 183.075 96.8974 182.977 97.0607 182.909C97.224 182.842 97.3989 182.807 97.5755 182.808H178.52C180.253 182.783 180.27 185.519 178.52 185.494Z" fill="#E4E4E4"/>
<path d="M146.861 158.516C151.631 158.516 155.498 154.65 155.498 149.88C155.498 145.111 151.631 141.245 146.861 141.245C142.091 141.245 138.224 145.111 138.224 149.88C138.224 154.65 142.091 158.516 146.861 158.516Z" fill="#4154AF"/>
<path d="M145.68 154.372C145.53 154.372 145.383 154.338 145.25 154.271C145.117 154.204 145.001 154.107 144.911 153.988L142.555 150.847C142.479 150.746 142.424 150.631 142.393 150.509C142.361 150.387 142.354 150.26 142.372 150.135C142.39 150.01 142.432 149.89 142.497 149.781C142.561 149.673 142.646 149.578 142.747 149.502C142.848 149.426 142.963 149.371 143.085 149.34C143.207 149.309 143.334 149.302 143.459 149.32C143.584 149.338 143.704 149.38 143.813 149.444C143.921 149.508 144.016 149.593 144.092 149.694L145.634 151.749L149.593 145.811C149.734 145.6 149.954 145.453 150.204 145.403C150.454 145.353 150.713 145.404 150.925 145.546C151.137 145.687 151.284 145.906 151.334 146.156C151.384 146.406 151.333 146.665 151.192 146.877L146.479 153.944C146.394 154.072 146.279 154.178 146.145 154.252C146.01 154.327 145.86 154.368 145.706 154.372C145.697 154.372 145.688 154.372 145.68 154.372Z" fill="white"/>
<path d="M132.06 240.847H97.5734C97.217 240.847 96.8753 240.705 96.6233 240.453C96.3713 240.201 96.2297 239.86 96.2297 239.503C96.2297 239.147 96.3713 238.805 96.6233 238.554C96.8753 238.302 97.217 238.16 97.5734 238.16H132.06C133.793 238.136 133.81 240.871 132.06 240.847Z" fill="#E4E4E4"/>
<path d="M178.518 247.88H97.5734C97.217 247.88 96.8753 247.739 96.6233 247.487C96.3713 247.235 96.2297 246.893 96.2297 246.537C96.2297 246.181 96.3713 245.839 96.6233 245.587C96.8753 245.335 97.217 245.194 97.5734 245.194H178.518C180.251 245.169 180.268 247.905 178.518 247.88Z" fill="#E4E4E4"/>
<path d="M206.715 251.654C211.485 251.654 215.352 247.788 215.352 243.019C215.352 238.25 211.485 234.384 206.715 234.384C201.945 234.384 198.078 238.25 198.078 243.019C198.078 247.788 201.945 251.654 206.715 251.654Z" fill="#4154AF"/>
<path d="M205.543 247.512C205.393 247.512 205.246 247.477 205.113 247.41C204.98 247.344 204.864 247.247 204.774 247.127L202.418 243.986C202.342 243.885 202.287 243.771 202.256 243.648C202.224 243.526 202.217 243.399 202.235 243.274C202.253 243.149 202.295 243.029 202.36 242.921C202.424 242.812 202.509 242.717 202.61 242.642C202.711 242.566 202.826 242.511 202.948 242.48C203.07 242.448 203.197 242.441 203.322 242.459C203.447 242.477 203.567 242.519 203.676 242.584C203.784 242.648 203.879 242.733 203.955 242.834L205.497 244.889L209.456 238.951C209.526 238.846 209.616 238.756 209.721 238.685C209.826 238.615 209.943 238.566 210.067 238.541C210.191 238.517 210.318 238.516 210.442 238.541C210.566 238.565 210.684 238.614 210.789 238.684C210.894 238.754 210.984 238.844 211.054 238.949C211.124 239.054 211.173 239.171 211.198 239.295C211.223 239.419 211.223 239.546 211.198 239.67C211.174 239.794 211.125 239.912 211.055 240.017L206.342 247.084C206.257 247.212 206.142 247.317 206.008 247.392C205.873 247.466 205.723 247.507 205.569 247.511C205.56 247.512 205.552 247.512 205.543 247.512Z" fill="white"/>
<path d="M183.726 198.753H206.358L200.787 182.393L185.467 182.741L183.726 198.753Z" fill="#9E616A"/>
<path d="M183.794 195.615L206.359 195.267C206.359 195.267 213.942 211.244 210.884 221.114L202.027 250.099L194.747 287.303L188.051 285.271L186.175 282.451L187.557 277.42L186.986 274.603L184.771 248.875V248.527L183.727 237.736C179.025 221.673 180.276 211.978 183.794 195.615L183.794 195.615Z" fill="#2F2E41"/>
<path d="M199.656 248.373L203.804 278.418L202.878 279.859L203.804 282.229L202.664 287.845L196.06 289.127L189.8 262.27L199.656 248.373Z" fill="#2F2E41"/>
<path d="M184.402 190.96C184.396 190.96 184.391 190.96 184.386 190.96C184.199 190.961 184.017 190.902 183.866 190.792C183.716 190.682 183.605 190.526 183.549 190.348C182.456 186.895 181.276 182.656 181.863 182.069C182.118 181.85 182.417 181.687 182.739 181.591C183.442 181.324 183.997 181.114 183.562 179.81C183.251 178.878 184.224 177.844 183.734 177.212C183.109 176.405 183.256 175.633 183.734 175.123C184.183 174.645 182.89 172.424 183.611 170.148C183.634 170.075 183.641 169.999 183.632 169.923C183.622 169.848 183.596 169.776 183.556 169.711C182.651 168.261 180.013 164.995 183.229 161.806C186.183 158.875 187.446 153.148 188.289 152.729C188.409 152.669 188.502 152.565 188.547 152.438L189.662 149.383C189.724 149.214 189.837 149.068 189.984 148.965C190.132 148.862 190.307 148.806 190.487 148.806H199.131C199.263 148.806 199.393 148.835 199.512 148.892C199.631 148.949 199.735 149.032 199.817 149.135L203.887 154.222C203.938 154.285 203.98 154.355 204.011 154.429C204.55 155.716 209.207 167.128 206.861 171.483L206.43 172.281C204.361 176.113 203.504 177.699 204.394 178.588C205.213 179.407 204.863 180.014 204.655 180.376C204.59 180.489 204.517 180.616 204.53 180.673C204.77 181.755 204.161 181.911 203.869 181.987C203.849 181.992 203.826 181.998 203.804 182.004C203.877 182.101 203.958 182.192 204.045 182.275C204.15 182.361 204.235 182.468 204.295 182.589C204.355 182.71 204.389 182.842 204.394 182.977C204.367 183.128 204.308 183.271 204.222 183.397C204.135 183.524 204.023 183.63 203.892 183.71C203.758 183.822 203.606 183.95 203.603 184.035C203.601 184.085 203.66 184.149 203.695 184.183C203.846 184.328 204.052 184.495 204.27 184.671C204.903 185.183 205.62 185.763 205.649 186.32C205.654 186.417 205.638 186.514 205.601 186.604C205.565 186.694 205.509 186.774 205.438 186.841L203.811 188.466C203.694 188.672 204.231 189.946 204.473 190.232L204.585 190.365L204.504 190.434C204.575 190.55 204.617 190.682 204.627 190.818C204.636 190.954 204.612 191.09 204.558 191.215C204.491 191.357 204.385 191.476 204.252 191.558C204.119 191.64 203.965 191.681 203.809 191.677L184.402 190.96Z" fill="#3F3D56"/>
<path d="M156.053 167.267C156.718 167.952 157.626 168.347 158.58 168.369C159.534 168.39 160.459 168.036 161.154 167.382C161.308 167.237 161.448 167.079 161.573 166.909L173.835 170.625L171.954 164.307L160.598 161.747C159.786 161.237 158.805 161.067 157.868 161.274C156.932 161.481 156.114 162.049 155.592 162.853C155.157 163.532 154.965 164.339 155.049 165.141C155.133 165.943 155.487 166.693 156.053 167.267L156.053 167.267Z" fill="#9E616A"/>
<path d="M163.748 168.582L165.557 162.496L171.791 162.462L173.076 164.166L175.148 163.424L181.731 165.099L188.685 153.865C189.035 153.301 189.504 152.82 190.061 152.458C190.617 152.096 191.247 151.861 191.905 151.769C192.562 151.678 193.232 151.733 193.866 151.93C194.5 152.128 195.083 152.462 195.573 152.91C196.333 153.6 196.834 154.529 196.993 155.543C197.151 156.556 196.958 157.594 196.444 158.483L186.681 175.542L163.748 168.582Z" fill="#3F3D56"/>
<path d="M172.624 196.339C173.578 196.371 174.507 196.028 175.209 195.382C175.912 194.736 176.333 193.84 176.381 192.887C176.391 192.676 176.383 192.465 176.355 192.256L187.77 186.438L182.034 183.188L172.074 189.21C171.135 189.406 170.31 189.963 169.778 190.761C169.247 191.559 169.05 192.535 169.232 193.476C169.389 194.267 169.81 194.982 170.426 195.502C171.043 196.022 171.818 196.317 172.624 196.339H172.624Z" fill="#9E616A"/>
<path d="M179.08 191.955L176.165 186.315L180.636 181.97L182.743 182.309L183.722 180.338L189.629 176.985L186.854 164.067C186.715 163.418 186.72 162.746 186.87 162.1C187.02 161.453 187.311 160.847 187.722 160.326C188.133 159.804 188.654 159.38 189.247 159.083C189.841 158.786 190.493 158.623 191.157 158.607C192.183 158.577 193.188 158.899 194.006 159.52C194.823 160.141 195.402 161.023 195.648 162.02L200.437 181.082L179.08 191.955Z" fill="#3F3D56"/>
<path d="M195.24 147.188C199.824 147.188 203.54 143.472 203.54 138.889C203.54 134.307 199.824 130.591 195.24 130.591C190.656 130.591 186.94 134.307 186.94 138.889C186.94 143.472 190.656 147.188 195.24 147.188Z" fill="#9E616A"/>
<path d="M196.493 128.783L197.5 129.051L197.842 129.142L201.674 130.162C205.071 131.066 207 134.895 205.983 138.716C207.861 141.971 206.234 144.99 203.276 147.919C199.484 147.398 195.639 147.403 191.848 147.932L191.915 145.739L190.237 148.204C189.279 148.389 188.318 148.615 187.354 148.881C189.545 144.567 191.16 140.112 191.435 136.391L189.68 135.924L190.191 134.004L189.085 135.766L185.903 134.919C186.195 133.821 186.701 132.791 187.392 131.888C188.082 130.986 188.944 130.228 189.927 129.658C190.91 129.088 191.996 128.718 193.123 128.568C194.25 128.417 195.395 128.491 196.493 128.783Z" fill="#2F2E41"/>
<path d="M203.568 133.914C205.727 133.914 207.477 132.164 207.477 130.006C207.477 127.848 205.727 126.098 203.568 126.098C201.409 126.098 199.659 127.848 199.659 130.006C199.659 132.164 201.409 133.914 203.568 133.914Z" fill="#2F2E41"/>
</g>
</g>
<path d="M33.3795 34.7808H34.96C35.7573 34.7737 36.3874 34.5672 36.8501 34.1614C37.32 33.7556 37.555 33.1683 37.555 32.3994C37.555 31.659 37.3592 31.0859 36.9676 30.6801C36.5832 30.2671 35.9923 30.0607 35.1949 30.0607C34.4972 30.0607 33.9241 30.2636 33.4756 30.6694C33.0271 31.0681 32.8028 31.5913 32.8028 32.2392H30.2078C30.2078 31.4418 30.4178 30.7157 30.8379 30.0607C31.265 29.4057 31.8559 28.8967 32.6106 28.5336C33.3723 28.1634 34.2231 27.9783 35.1629 27.9783C36.7149 27.9783 37.9323 28.3698 38.8151 29.153C39.705 29.929 40.1499 31.0111 40.1499 32.3994C40.1499 33.0971 39.9257 33.7556 39.4772 34.375C39.0358 34.9873 38.4627 35.45 37.7579 35.7633C38.6122 36.0552 39.26 36.5144 39.7014 37.1409C40.1499 37.7674 40.3742 38.5149 40.3742 39.3834C40.3742 40.7788 39.8937 41.8895 38.9325 42.7153C37.9786 43.5411 36.722 43.9541 35.1629 43.9541C33.6678 43.9541 32.4433 43.5554 31.4893 42.758C30.5353 41.9606 30.0583 40.8999 30.0583 39.5757H32.6533C32.6533 40.2591 32.8811 40.8144 33.3367 41.2416C33.7995 41.6688 34.4189 41.8823 35.1949 41.8823C35.9994 41.8823 36.633 41.6688 37.0958 41.2416C37.5585 40.8144 37.7899 40.1951 37.7899 39.3834C37.7899 38.5647 37.5478 37.9347 37.0637 37.4933C36.5796 37.0519 35.8605 36.8312 34.9066 36.8312H33.3795V34.7808Z" fill="white"/>
<defs>
<clipPath id="clip0_437_3010">
<rect width="216.956" height="243.201" fill="white" transform="translate(96.2322 73.6082)"/>
</clipPath>
</defs>
</svg>
